<?xml version="1.0" standalone="no"?>
<!DOCTYPE svg PUBLIC "-//W3C//DTD SVG 20010904//EN"
 "http://www.w3.org/TR/2001/REC-SVG-20010904/DTD/svg10.dtd">
<svg version="1.0" xmlns="http://www.w3.org/2000/svg"
 width="512.000000pt" height="512.000000pt" viewBox="0 0 512.000000 512.000000"
 preserveAspectRatio="xMidYMid meet">

<g transform="translate(0.000000,512.000000) scale(0.100000,-0.100000)"
fill="#000000" stroke="none">
<path d="M2325 4789 c-240 -25 -546 -113 -745 -214 -119 -60 -147 -184 -59
-267 60 -57 106 -60 211 -13 571 252 1150 248 1678 -14 681 -338 1096 -1035
1067 -1796 -28 -751 -400 -1419 -903 -1624 -291 -118 -568 -85 -692 84 -97
131 -154 289 -156 429 l-1 79 64 13 c439 91 783 442 872 889 11 55 14 194 14
647 0 567 0 577 -21 604 -11 15 -33 37 -48 48 -26 20 -40 21 -326 21 -286 0
-300 -1 -326 -21 -53 -39 -69 -71 -69 -134 0 -63 16 -95 69 -134 25 -19 44
-21 217 -24 l190 -3 -3 -467 c-3 -395 -6 -475 -20 -522 -64 -217 -173 -368
-345 -480 -136 -89 -259 -125 -433 -125 -174 0 -297 36 -433 125 -172 112
-281 263 -345 480 -14 47 -17 127 -20 522 l-3 467 190 3 c173 3 192 5 217 24
53 39 69 71 69 134 0 63 -16 95 -69 134 -26 20 -40 21 -326 21 -286 0 -300 -1
-326 -21 -15 -11 -37 -33 -48 -48 -21 -27 -21 -37 -21 -604 0 -623 1 -638 56
-799 125 -372 449 -660 829 -737 l65 -13 17 -129 c21 -152 44 -249 87 -361 68
-176 200 -326 354 -402 133 -66 186 -76 382 -75 150 0 183 4 278 27 60 15 143
41 185 58 551 220 956 834 1079 1636 26 169 23 540 -5 703 -42 249 -99 424
-207 645 -269 548 -766 969 -1357 1149 -264 81 -608 114 -883 85z"/>
<path d="M1005 4156 c-66 -29 -251 -256 -370 -454 -353 -589 -411 -1330 -155
-1971 29 -73 79 -179 112 -237 l58 -105 -34 -42 c-45 -56 -91 -149 -112 -228
-22 -85 -22 -234 0 -319 72 -269 306 -459 586 -477 277 -17 543 162 637 429
34 97 42 251 19 353 -43 180 -172 344 -336 424 -140 68 -272 86 -415 56 -38
-8 -73 -15 -77 -15 -11 0 -144 279 -172 360 -113 338 -135 682 -64 1025 63
311 224 629 441 877 47 54 91 114 97 134 40 122 -96 242 -215 190z m250 -2907
c63 -30 123 -90 155 -154 20 -41 25 -65 25 -135 -1 -77 -4 -91 -34 -148 -38
-70 -70 -101 -145 -140 -43 -22 -64 -26 -136 -26 -70 -1 -94 4 -135 24 -260
128 -238 495 35 594 63 23 170 16 235 -15z"/>
</g>
</svg>
