<?xml version="1.0" standalone="no"?>
<!DOCTYPE svg PUBLIC "-//W3C//DTD SVG 20010904//EN"
 "http://www.w3.org/TR/2001/REC-SVG-20010904/DTD/svg10.dtd">
<svg version="1.0" xmlns="http://www.w3.org/2000/svg"
 width="512.000000pt" height="512.000000pt" viewBox="0 0 512.000000 512.000000"
 preserveAspectRatio="xMidYMid meet">

<g transform="translate(0.000000,512.000000) scale(0.100000,-0.100000)"
fill="#000000" stroke="none">
<path d="M2410 5110 c-259 -36 -486 -121 -678 -252 -165 -113 -331 -314 -402
-486 -63 -150 -82 -248 -87 -449 l-5 -183 -100 0 c-124 0 -147 -11 -182 -84
-60 -126 -56 -284 10 -416 52 -104 111 -163 210 -211 61 -29 84 -46 84 -59 0
-33 51 -183 87 -255 44 -87 107 -184 168 -254 l46 -54 -53 -22 c-143 -59 -347
-184 -455 -280 -75 -66 -81 -127 -19 -177 40 -33 87 -23 157 33 140 113 381
248 500 280 44 12 45 11 109 -33 36 -25 103 -65 149 -88 l85 -42 -102 -97
c-56 -53 -107 -109 -112 -124 -9 -25 0 -61 57 -238 l67 -209 -112 -114 c-102
-102 -112 -116 -112 -149 0 -21 63 -233 141 -473 77 -240 138 -439 135 -442
-8 -8 -189 15 -346 44 -380 70 -700 177 -928 311 -51 30 -107 67 -124 82 l-31
28 17 117 c23 159 66 323 122 458 62 151 65 179 26 218 -23 23 -39 30 -69 30
-72 0 -94 -31 -170 -240 -66 -182 -123 -467 -123 -617 0 -55 2 -58 51 -105
221 -214 764 -418 1334 -503 429 -64 1058 -72 1490 -19 642 78 1231 286 1474
522 49 47 51 50 51 105 0 224 -85 555 -210 815 -154 320 -383 583 -666 766
-61 38 -265 145 -305 158 -7 2 13 37 53 90 99 129 179 279 207 386 6 23 16 60
21 81 9 33 16 41 48 51 140 45 270 203 303 368 24 124 -11 285 -72 337 -29 23
-37 25 -140 25 l-109 0 0 94 c0 644 -386 1125 -1009 1256 -110 24 -376 34
-481 20z m424 -216 c335 -62 599 -247 738 -520 82 -160 116 -298 125 -501 l6
-133 -469 0 c-517 0 -644 8 -809 50 -201 50 -349 127 -509 264 -97 84 -121 95
-167 76 -45 -19 -61 -51 -69 -139 -9 -83 -32 -141 -72 -178 -25 -23 -94 -56
-142 -67 l-29 -7 6 173 c5 190 21 271 76 391 66 147 198 301 340 396 155 105
386 188 585 211 101 11 284 4 390 -16z m-898 -1110 c187 -125 413 -204 669
-234 50 -5 313 -10 588 -10 l497 0 0 -232 c0 -160 -5 -254 -14 -298 -62 -291
-288 -565 -593 -719 -97 -49 -230 -94 -333 -112 -91 -16 -272 -16 -360 0 -388
70 -744 340 -880 667 -59 142 -63 169 -67 440 l-5 251 48 8 c159 24 313 134
355 254 6 17 14 31 19 31 4 0 38 -21 76 -46z m-696 -399 c0 -85 -4 -155 -8
-155 -13 0 -69 63 -86 98 -23 45 -37 127 -30 173 l7 39 58 0 59 0 0 -155z
m2786 129 c9 -37 -2 -117 -24 -167 -20 -45 -77 -117 -93 -117 -5 0 -9 70 -9
155 l0 155 60 0 c56 0 60 -2 66 -26z m-477 -1315 c358 -153 637 -419 819 -784
96 -193 159 -395 188 -607 18 -129 22 -120 -86 -191 -203 -133 -519 -248 -884
-322 -182 -37 -395 -68 -425 -63 -16 3 -3 52 121 433 77 237 140 449 141 472
2 42 -1 45 -111 156 l-114 114 66 202 c36 110 66 213 66 228 0 22 -23 51 -109
136 l-109 108 76 39 c43 21 106 59 142 84 77 54 81 54 219 -5z m-1341 -1510
l-3 -432 -137 424 -136 424 103 105 c106 108 125 134 125 169 0 12 -29 110
-65 218 l-64 198 87 88 87 87 3 -424 c1 -233 1 -619 0 -857z m520 1216 l-3
-60 -74 -7 c-40 -4 -110 -4 -155 0 l-81 7 -3 60 -3 60 161 0 161 0 -3 -60z
m382 -109 c0 -4 -30 -100 -66 -212 -42 -134 -63 -212 -59 -227 4 -12 57 -72
118 -134 l110 -112 -127 -394 c-69 -217 -133 -412 -140 -433 -13 -34 -15 69
-15 824 l-1 863 90 -83 c49 -46 90 -87 90 -92z m-380 -872 l0 -711 -37 -7
c-49 -8 -202 -8 -242 0 l-31 7 0 711 0 711 155 0 155 0 0 -711z"/>
<path d="M2044 3306 c-84 -21 -171 -88 -189 -146 -21 -65 28 -130 97 -130 33
0 46 7 79 40 58 59 122 58 186 -1 54 -49 98 -53 142 -11 42 38 46 68 19 122
-53 104 -201 160 -334 126z"/>
<path d="M2889 3307 c-109 -31 -193 -111 -193 -184 0 -27 7 -42 32 -64 47 -43
89 -39 147 11 40 35 52 40 95 40 44 0 53 -4 89 -40 33 -33 46 -40 79 -40 74 0
121 70 93 139 -17 40 -79 97 -131 120 -60 26 -153 34 -211 18z"/>
<path d="M3759 1531 c-26 -26 -29 -37 -29 -89 l0 -60 -66 -4 c-58 -4 -70 -8
-90 -32 -32 -37 -32 -95 0 -132 20 -24 32 -28 90 -32 l66 -4 0 -60 c0 -52 3
-63 29 -89 32 -31 71 -38 115 -18 33 15 56 66 56 123 l0 46 50 0 c61 0 92 14
113 50 26 44 21 78 -17 116 -30 30 -40 34 -89 34 l-55 0 -4 61 c-4 54 -9 66
-36 90 -44 40 -93 39 -133 0z"/>
<path d="M794 1821 c-85 -52 -50 -181 47 -181 56 0 99 40 99 92 0 50 -13 74
-50 93 -38 20 -58 19 -96 -4z"/>
</g>
</svg>
