<svg width="238" height="33" viewBox="0 0 238 33" fill="none" xmlns="http://www.w3.org/2000/svg">
<mask id="path-1-outside-1_1726_372" maskUnits="userSpaceOnUse" x="0" y="0" width="238" height="33" fill="black">
<rect fill="white" width="238" height="33"/>
<path d="M1 31.4862V1.51381H10.1655C15.4232 1.51381 19.2883 2.85543 21.7608 5.53867C24.2618 8.22192 25.5123 11.9042 25.5123 16.5856C25.5123 21.1814 24.2618 24.8209 21.7608 27.5041C19.2883 30.1588 15.4232 31.4862 10.1655 31.4862H1ZM4.58093 28.489H10.0802C12.979 28.489 15.2811 28.018 16.9863 27.076C18.7199 26.1054 19.9562 24.7353 20.6951 22.9655C21.434 21.1671 21.8035 19.0405 21.8035 16.5856C21.8035 14.0737 21.434 11.9185 20.6951 10.1202C19.9562 8.32182 18.7199 6.93738 16.9863 5.96685C15.2811 4.99632 12.979 4.51105 10.0802 4.51105H4.58093V28.489Z"/>
<path d="M40.9567 32C38.9673 32 37.1768 31.5433 35.5853 30.6298C33.9938 29.7164 32.7291 28.4319 31.7912 26.7762C30.8818 25.0921 30.4271 23.1225 30.4271 20.8674C30.4271 18.6123 30.896 16.657 31.8339 15.0014C32.7717 13.3172 34.0364 12.0184 35.6279 11.105C37.2479 10.1915 39.0525 9.73481 41.0419 9.73481C43.0313 9.73481 44.8218 10.1915 46.4133 11.105C48.0049 12.0184 49.2553 13.3172 50.1648 15.0014C51.1026 16.657 51.5716 18.6123 51.5716 20.8674C51.5716 23.1225 51.1026 25.0921 50.1648 26.7762C49.2269 28.4319 47.948 29.7164 46.3281 30.6298C44.7366 31.5433 42.9461 32 40.9567 32ZM40.9567 28.9171C42.1787 28.9171 43.3156 28.6174 44.3671 28.018C45.4186 27.4185 46.2712 26.5193 46.9249 25.3204C47.5786 24.1215 47.9054 22.6372 47.9054 20.8674C47.9054 19.0976 47.5786 17.6133 46.9249 16.4144C46.2997 15.2155 45.4613 14.3163 44.4097 13.7169C43.3582 13.1174 42.2356 12.8177 41.0419 12.8177C39.8199 12.8177 38.6831 13.1174 37.6315 13.7169C36.58 14.3163 35.7274 15.2155 35.0737 16.4144C34.4201 17.6133 34.0932 19.0976 34.0932 20.8674C34.0932 22.6372 34.4201 24.1215 35.0737 25.3204C35.7274 26.5193 36.5658 27.4185 37.5889 28.018C38.6405 28.6174 39.763 28.9171 40.9567 28.9171Z"/>
<path d="M67.1229 32C65.1051 32 63.2862 31.5433 61.6662 30.6298C60.0747 29.6878 58.81 28.389 57.8722 26.7334C56.9627 25.0493 56.508 23.0939 56.508 20.8674C56.508 18.6409 56.9627 16.6998 57.8722 15.0442C58.81 13.36 60.0747 12.0612 61.6662 11.1478C63.2862 10.2058 65.1051 9.73481 67.1229 9.73481C69.6238 9.73481 71.7269 10.3913 73.4321 11.7044C75.1657 13.0175 76.2599 14.773 76.7146 16.971H73.0485C72.7643 15.6579 72.068 14.6446 70.9596 13.9309C69.8512 13.1888 68.5581 12.8177 67.0802 12.8177C65.8866 12.8177 64.764 13.1174 63.7125 13.7169C62.6609 14.3163 61.8083 15.2155 61.1547 16.4144C60.501 17.6133 60.1742 19.0976 60.1742 20.8674C60.1742 22.6372 60.501 24.1215 61.1547 25.3204C61.8083 26.5193 62.6609 27.4328 63.7125 28.0608C64.764 28.6602 65.8866 28.9599 67.0802 28.9599C68.5581 28.9599 69.8512 28.6031 70.9596 27.8895C72.068 27.1473 72.7643 26.1054 73.0485 24.7638H76.7146C76.2883 26.9047 75.2084 28.646 73.4748 29.9876C71.7411 31.3292 69.6238 32 67.1229 32Z"/>
<path d="M90.3409 31.4862C88.4084 31.4862 86.8879 31.0152 85.7795 30.0732C84.6711 29.1312 84.117 27.4328 84.117 24.9779V13.2887H80.4508V10.2486H84.117L84.5859 5.15332H87.6979V10.2486H93.9219V13.2887H87.6979V24.9779C87.6979 26.3195 87.9679 27.233 88.5079 27.7182C89.0478 28.175 89.9999 28.4033 91.3641 28.4033H93.5808V31.4862H90.3409Z"/>
<path d="M108.375 32C106.386 32 104.596 31.5433 103.004 30.6298C101.413 29.7164 100.148 28.4319 99.21 26.7762C98.3006 25.0921 97.8458 23.1225 97.8458 20.8674C97.8458 18.6123 98.3148 16.657 99.2526 15.0014C100.19 13.3172 101.455 12.0184 103.047 11.105C104.667 10.1915 106.471 9.73481 108.461 9.73481C110.45 9.73481 112.241 10.1915 113.832 11.105C115.424 12.0184 116.674 13.3172 117.584 15.0014C118.521 16.657 118.99 18.6123 118.99 20.8674C118.99 23.1225 118.521 25.0921 117.584 26.7762C116.646 28.4319 115.367 29.7164 113.747 30.6298C112.155 31.5433 110.365 32 108.375 32ZM108.375 28.9171C109.598 28.9171 110.734 28.6174 111.786 28.018C112.837 27.4185 113.69 26.5193 114.344 25.3204C114.997 24.1215 115.324 22.6372 115.324 20.8674C115.324 19.0976 114.997 17.6133 114.344 16.4144C113.718 15.2155 112.88 14.3163 111.828 13.7169C110.777 13.1174 109.654 12.8177 108.461 12.8177C107.239 12.8177 106.102 13.1174 105.05 13.7169C103.999 14.3163 103.146 15.2155 102.493 16.4144C101.839 17.6133 101.512 19.0976 101.512 20.8674C101.512 22.6372 101.839 24.1215 102.493 25.3204C103.146 26.5193 103.985 27.4185 105.008 28.018C106.059 28.6174 107.182 28.9171 108.375 28.9171Z"/>
<path d="M124.822 31.4862V10.2486H128.062L128.36 14.3163C129.014 12.9176 130.009 11.8043 131.344 10.9765C132.68 10.1487 134.329 9.73481 136.289 9.73481V13.5028H135.309C134.059 13.5028 132.908 13.7311 131.856 14.1878C130.804 14.616 129.966 15.3582 129.341 16.4144C128.716 17.4705 128.403 18.9263 128.403 20.7818V31.4862H124.822Z"/>
<path d="M154.632 32C151.62 32 149.034 31.3577 146.874 30.0732C144.714 28.7601 143.051 26.9475 141.886 24.6354C140.721 22.2947 140.138 19.5971 140.138 16.5428C140.138 13.4885 140.721 10.791 141.886 8.45027C143.051 6.10958 144.714 4.28269 146.874 2.96961C149.034 1.65654 151.62 1 154.632 1C158.213 1 161.141 1.89917 163.414 3.69751C165.716 5.46731 167.151 7.96501 167.72 11.1906H161.709C161.34 9.56354 160.544 8.29328 159.322 7.37983C158.128 6.43784 156.537 5.96685 154.547 5.96685C151.79 5.96685 149.63 6.90884 148.067 8.79282C146.504 10.6768 145.723 13.2601 145.723 16.5428C145.723 19.8255 146.504 22.4088 148.067 24.2928C149.63 26.1483 151.79 27.076 154.547 27.076C156.537 27.076 158.128 26.6478 159.322 25.7914C160.544 24.9065 161.34 23.6934 161.709 22.1519H167.72C167.151 25.2348 165.716 27.6469 163.414 29.3881C161.141 31.1294 158.213 32 154.632 32Z"/>
<path d="M180.564 32C178.746 32 177.254 31.7145 176.088 31.1436C174.923 30.5442 174.056 29.7592 173.488 28.7887C172.919 27.8181 172.635 26.7477 172.635 25.5773C172.635 23.6077 173.403 22.0092 174.937 20.7818C176.472 19.5543 178.774 18.9406 181.843 18.9406H187.215V18.4268C187.215 16.971 186.803 15.9006 185.978 15.2155C185.154 14.5304 184.131 14.1878 182.909 14.1878C181.801 14.1878 180.834 14.459 180.01 15.0014C179.186 15.5152 178.675 16.2859 178.476 17.3135H173.147C173.289 15.7721 173.8 14.4305 174.682 13.2887C175.591 12.1469 176.756 11.2762 178.177 10.6768C179.598 10.0488 181.19 9.73481 182.952 9.73481C185.964 9.73481 188.337 10.4913 190.071 12.0041C191.805 13.517 192.671 15.6579 192.671 18.4268V31.4862H188.025L187.513 28.0608C186.888 29.2026 186.007 30.1446 184.87 30.8867C183.762 31.6289 182.327 32 180.564 32ZM181.801 27.7182C183.364 27.7182 184.572 27.2044 185.424 26.1768C186.305 25.1492 186.859 23.8789 187.087 22.366H182.44C180.991 22.366 179.953 22.6372 179.328 23.1796C178.703 23.6934 178.39 24.3356 178.39 25.1064C178.39 25.9342 178.703 26.5764 179.328 27.0331C179.953 27.4899 180.778 27.7182 181.801 27.7182Z"/>
<path d="M198.731 31.4862V10.2486H203.591L204.103 14.2307C204.87 12.8605 205.907 11.7758 207.215 10.9765C208.55 10.1487 210.113 9.73481 211.904 9.73481V15.5152H210.369C209.176 15.5152 208.11 15.7007 207.172 16.0718C206.234 16.4429 205.495 17.0852 204.955 17.9986C204.444 18.9121 204.188 20.1823 204.188 21.8094V31.4862H198.731Z"/>
<path d="M226.385 32C224.254 32 222.364 31.5433 220.715 30.6298C219.067 29.7164 217.774 28.4319 216.836 26.7762C215.898 25.1206 215.429 23.2081 215.429 21.0387C215.429 18.8407 215.884 16.8854 216.793 15.1727C217.731 13.4599 219.01 12.1326 220.63 11.1906C222.278 10.2201 224.211 9.73481 226.428 9.73481C228.502 9.73481 230.335 10.1915 231.927 11.105C233.519 12.0184 234.755 13.2744 235.636 14.8729C236.545 16.4429 237 18.1984 237 20.1395C237 20.4535 236.986 20.7818 236.957 21.1243C236.957 21.4669 236.943 21.8237 236.915 22.1948H220.843C220.957 23.8504 221.525 25.1492 222.548 26.0912C223.6 27.0331 224.865 27.5041 226.342 27.5041C227.451 27.5041 228.375 27.2615 229.113 26.7762C229.881 26.2624 230.449 25.6059 230.819 24.8066H236.361C235.963 26.1483 235.295 27.3757 234.357 28.489C233.448 29.5737 232.311 30.43 230.947 31.058C229.611 31.686 228.09 32 226.385 32ZM226.428 14.1878C225.092 14.1878 223.913 14.5732 222.889 15.3439C221.866 16.0861 221.213 17.2279 220.928 18.7693H231.458C231.373 17.3706 230.861 16.2574 229.923 15.4296C228.986 14.6017 227.82 14.1878 226.428 14.1878Z"/>
</mask>
<path d="M1 31.4862V1.51381H10.1655C15.4232 1.51381 19.2883 2.85543 21.7608 5.53867C24.2618 8.22192 25.5123 11.9042 25.5123 16.5856C25.5123 21.1814 24.2618 24.8209 21.7608 27.5041C19.2883 30.1588 15.4232 31.4862 10.1655 31.4862H1ZM4.58093 28.489H10.0802C12.979 28.489 15.2811 28.018 16.9863 27.076C18.7199 26.1054 19.9562 24.7353 20.6951 22.9655C21.434 21.1671 21.8035 19.0405 21.8035 16.5856C21.8035 14.0737 21.434 11.9185 20.6951 10.1202C19.9562 8.32182 18.7199 6.93738 16.9863 5.96685C15.2811 4.99632 12.979 4.51105 10.0802 4.51105H4.58093V28.489Z" fill="white"/>
<path d="M40.9567 32C38.9673 32 37.1768 31.5433 35.5853 30.6298C33.9938 29.7164 32.7291 28.4319 31.7912 26.7762C30.8818 25.0921 30.4271 23.1225 30.4271 20.8674C30.4271 18.6123 30.896 16.657 31.8339 15.0014C32.7717 13.3172 34.0364 12.0184 35.6279 11.105C37.2479 10.1915 39.0525 9.73481 41.0419 9.73481C43.0313 9.73481 44.8218 10.1915 46.4133 11.105C48.0049 12.0184 49.2553 13.3172 50.1648 15.0014C51.1026 16.657 51.5716 18.6123 51.5716 20.8674C51.5716 23.1225 51.1026 25.0921 50.1648 26.7762C49.2269 28.4319 47.948 29.7164 46.3281 30.6298C44.7366 31.5433 42.9461 32 40.9567 32ZM40.9567 28.9171C42.1787 28.9171 43.3156 28.6174 44.3671 28.018C45.4186 27.4185 46.2712 26.5193 46.9249 25.3204C47.5786 24.1215 47.9054 22.6372 47.9054 20.8674C47.9054 19.0976 47.5786 17.6133 46.9249 16.4144C46.2997 15.2155 45.4613 14.3163 44.4097 13.7169C43.3582 13.1174 42.2356 12.8177 41.0419 12.8177C39.8199 12.8177 38.6831 13.1174 37.6315 13.7169C36.58 14.3163 35.7274 15.2155 35.0737 16.4144C34.4201 17.6133 34.0932 19.0976 34.0932 20.8674C34.0932 22.6372 34.4201 24.1215 35.0737 25.3204C35.7274 26.5193 36.5658 27.4185 37.5889 28.018C38.6405 28.6174 39.763 28.9171 40.9567 28.9171Z" fill="white"/>
<path d="M67.1229 32C65.1051 32 63.2862 31.5433 61.6662 30.6298C60.0747 29.6878 58.81 28.389 57.8722 26.7334C56.9627 25.0493 56.508 23.0939 56.508 20.8674C56.508 18.6409 56.9627 16.6998 57.8722 15.0442C58.81 13.36 60.0747 12.0612 61.6662 11.1478C63.2862 10.2058 65.1051 9.73481 67.1229 9.73481C69.6238 9.73481 71.7269 10.3913 73.4321 11.7044C75.1657 13.0175 76.2599 14.773 76.7146 16.971H73.0485C72.7643 15.6579 72.068 14.6446 70.9596 13.9309C69.8512 13.1888 68.5581 12.8177 67.0802 12.8177C65.8866 12.8177 64.764 13.1174 63.7125 13.7169C62.6609 14.3163 61.8083 15.2155 61.1547 16.4144C60.501 17.6133 60.1742 19.0976 60.1742 20.8674C60.1742 22.6372 60.501 24.1215 61.1547 25.3204C61.8083 26.5193 62.6609 27.4328 63.7125 28.0608C64.764 28.6602 65.8866 28.9599 67.0802 28.9599C68.5581 28.9599 69.8512 28.6031 70.9596 27.8895C72.068 27.1473 72.7643 26.1054 73.0485 24.7638H76.7146C76.2883 26.9047 75.2084 28.646 73.4748 29.9876C71.7411 31.3292 69.6238 32 67.1229 32Z" fill="white"/>
<path d="M90.3409 31.4862C88.4084 31.4862 86.8879 31.0152 85.7795 30.0732C84.6711 29.1312 84.117 27.4328 84.117 24.9779V13.2887H80.4508V10.2486H84.117L84.5859 5.15332H87.6979V10.2486H93.9219V13.2887H87.6979V24.9779C87.6979 26.3195 87.9679 27.233 88.5079 27.7182C89.0478 28.175 89.9999 28.4033 91.3641 28.4033H93.5808V31.4862H90.3409Z" fill="white"/>
<path d="M108.375 32C106.386 32 104.596 31.5433 103.004 30.6298C101.413 29.7164 100.148 28.4319 99.21 26.7762C98.3006 25.0921 97.8458 23.1225 97.8458 20.8674C97.8458 18.6123 98.3148 16.657 99.2526 15.0014C100.19 13.3172 101.455 12.0184 103.047 11.105C104.667 10.1915 106.471 9.73481 108.461 9.73481C110.45 9.73481 112.241 10.1915 113.832 11.105C115.424 12.0184 116.674 13.3172 117.584 15.0014C118.521 16.657 118.99 18.6123 118.99 20.8674C118.99 23.1225 118.521 25.0921 117.584 26.7762C116.646 28.4319 115.367 29.7164 113.747 30.6298C112.155 31.5433 110.365 32 108.375 32ZM108.375 28.9171C109.598 28.9171 110.734 28.6174 111.786 28.018C112.837 27.4185 113.69 26.5193 114.344 25.3204C114.997 24.1215 115.324 22.6372 115.324 20.8674C115.324 19.0976 114.997 17.6133 114.344 16.4144C113.718 15.2155 112.88 14.3163 111.828 13.7169C110.777 13.1174 109.654 12.8177 108.461 12.8177C107.239 12.8177 106.102 13.1174 105.05 13.7169C103.999 14.3163 103.146 15.2155 102.493 16.4144C101.839 17.6133 101.512 19.0976 101.512 20.8674C101.512 22.6372 101.839 24.1215 102.493 25.3204C103.146 26.5193 103.985 27.4185 105.008 28.018C106.059 28.6174 107.182 28.9171 108.375 28.9171Z" fill="white"/>
<path d="M124.822 31.4862V10.2486H128.062L128.36 14.3163C129.014 12.9176 130.009 11.8043 131.344 10.9765C132.68 10.1487 134.329 9.73481 136.289 9.73481V13.5028H135.309C134.059 13.5028 132.908 13.7311 131.856 14.1878C130.804 14.616 129.966 15.3582 129.341 16.4144C128.716 17.4705 128.403 18.9263 128.403 20.7818V31.4862H124.822Z" fill="white"/>
<path d="M154.632 32C151.62 32 149.034 31.3577 146.874 30.0732C144.714 28.7601 143.051 26.9475 141.886 24.6354C140.721 22.2947 140.138 19.5971 140.138 16.5428C140.138 13.4885 140.721 10.791 141.886 8.45027C143.051 6.10958 144.714 4.28269 146.874 2.96961C149.034 1.65654 151.62 1 154.632 1C158.213 1 161.141 1.89917 163.414 3.69751C165.716 5.46731 167.151 7.96501 167.72 11.1906H161.709C161.34 9.56354 160.544 8.29328 159.322 7.37983C158.128 6.43784 156.537 5.96685 154.547 5.96685C151.79 5.96685 149.63 6.90884 148.067 8.79282C146.504 10.6768 145.723 13.2601 145.723 16.5428C145.723 19.8255 146.504 22.4088 148.067 24.2928C149.63 26.1483 151.79 27.076 154.547 27.076C156.537 27.076 158.128 26.6478 159.322 25.7914C160.544 24.9065 161.34 23.6934 161.709 22.1519H167.72C167.151 25.2348 165.716 27.6469 163.414 29.3881C161.141 31.1294 158.213 32 154.632 32Z" fill="white"/>
<path d="M180.564 32C178.746 32 177.254 31.7145 176.088 31.1436C174.923 30.5442 174.056 29.7592 173.488 28.7887C172.919 27.8181 172.635 26.7477 172.635 25.5773C172.635 23.6077 173.403 22.0092 174.937 20.7818C176.472 19.5543 178.774 18.9406 181.843 18.9406H187.215V18.4268C187.215 16.971 186.803 15.9006 185.978 15.2155C185.154 14.5304 184.131 14.1878 182.909 14.1878C181.801 14.1878 180.834 14.459 180.01 15.0014C179.186 15.5152 178.675 16.2859 178.476 17.3135H173.147C173.289 15.7721 173.8 14.4305 174.682 13.2887C175.591 12.1469 176.756 11.2762 178.177 10.6768C179.598 10.0488 181.19 9.73481 182.952 9.73481C185.964 9.73481 188.337 10.4913 190.071 12.0041C191.805 13.517 192.671 15.6579 192.671 18.4268V31.4862H188.025L187.513 28.0608C186.888 29.2026 186.007 30.1446 184.87 30.8867C183.762 31.6289 182.327 32 180.564 32ZM181.801 27.7182C183.364 27.7182 184.572 27.2044 185.424 26.1768C186.305 25.1492 186.859 23.8789 187.087 22.366H182.44C180.991 22.366 179.953 22.6372 179.328 23.1796C178.703 23.6934 178.39 24.3356 178.39 25.1064C178.39 25.9342 178.703 26.5764 179.328 27.0331C179.953 27.4899 180.778 27.7182 181.801 27.7182Z" fill="white"/>
<path d="M198.731 31.4862V10.2486H203.591L204.103 14.2307C204.87 12.8605 205.907 11.7758 207.215 10.9765C208.55 10.1487 210.113 9.73481 211.904 9.73481V15.5152H210.369C209.176 15.5152 208.11 15.7007 207.172 16.0718C206.234 16.4429 205.495 17.0852 204.955 17.9986C204.444 18.9121 204.188 20.1823 204.188 21.8094V31.4862H198.731Z" fill="white"/>
<path d="M226.385 32C224.254 32 222.364 31.5433 220.715 30.6298C219.067 29.7164 217.774 28.4319 216.836 26.7762C215.898 25.1206 215.429 23.2081 215.429 21.0387C215.429 18.8407 215.884 16.8854 216.793 15.1727C217.731 13.4599 219.01 12.1326 220.63 11.1906C222.278 10.2201 224.211 9.73481 226.428 9.73481C228.502 9.73481 230.335 10.1915 231.927 11.105C233.519 12.0184 234.755 13.2744 235.636 14.8729C236.545 16.4429 237 18.1984 237 20.1395C237 20.4535 236.986 20.7818 236.957 21.1243C236.957 21.4669 236.943 21.8237 236.915 22.1948H220.843C220.957 23.8504 221.525 25.1492 222.548 26.0912C223.6 27.0331 224.865 27.5041 226.342 27.5041C227.451 27.5041 228.375 27.2615 229.113 26.7762C229.881 26.2624 230.449 25.6059 230.819 24.8066H236.361C235.963 26.1483 235.295 27.3757 234.357 28.489C233.448 29.5737 232.311 30.43 230.947 31.058C229.611 31.686 228.09 32 226.385 32ZM226.428 14.1878C225.092 14.1878 223.913 14.5732 222.889 15.3439C221.866 16.0861 221.213 17.2279 220.928 18.7693H231.458C231.373 17.3706 230.861 16.2574 229.923 15.4296C228.986 14.6017 227.82 14.1878 226.428 14.1878Z" fill="white"/>
<path d="M1 31.4862V1.51381H10.1655C15.4232 1.51381 19.2883 2.85543 21.7608 5.53867C24.2618 8.22192 25.5123 11.9042 25.5123 16.5856C25.5123 21.1814 24.2618 24.8209 21.7608 27.5041C19.2883 30.1588 15.4232 31.4862 10.1655 31.4862H1ZM4.58093 28.489H10.0802C12.979 28.489 15.2811 28.018 16.9863 27.076C18.7199 26.1054 19.9562 24.7353 20.6951 22.9655C21.434 21.1671 21.8035 19.0405 21.8035 16.5856C21.8035 14.0737 21.434 11.9185 20.6951 10.1202C19.9562 8.32182 18.7199 6.93738 16.9863 5.96685C15.2811 4.99632 12.979 4.51105 10.0802 4.51105H4.58093V28.489Z" stroke="black" stroke-width="2" mask="url(#path-1-outside-1_1726_372)"/>
<path d="M40.9567 32C38.9673 32 37.1768 31.5433 35.5853 30.6298C33.9938 29.7164 32.7291 28.4319 31.7912 26.7762C30.8818 25.0921 30.4271 23.1225 30.4271 20.8674C30.4271 18.6123 30.896 16.657 31.8339 15.0014C32.7717 13.3172 34.0364 12.0184 35.6279 11.105C37.2479 10.1915 39.0525 9.73481 41.0419 9.73481C43.0313 9.73481 44.8218 10.1915 46.4133 11.105C48.0049 12.0184 49.2553 13.3172 50.1648 15.0014C51.1026 16.657 51.5716 18.6123 51.5716 20.8674C51.5716 23.1225 51.1026 25.0921 50.1648 26.7762C49.2269 28.4319 47.948 29.7164 46.3281 30.6298C44.7366 31.5433 42.9461 32 40.9567 32ZM40.9567 28.9171C42.1787 28.9171 43.3156 28.6174 44.3671 28.018C45.4186 27.4185 46.2712 26.5193 46.9249 25.3204C47.5786 24.1215 47.9054 22.6372 47.9054 20.8674C47.9054 19.0976 47.5786 17.6133 46.9249 16.4144C46.2997 15.2155 45.4613 14.3163 44.4097 13.7169C43.3582 13.1174 42.2356 12.8177 41.0419 12.8177C39.8199 12.8177 38.6831 13.1174 37.6315 13.7169C36.58 14.3163 35.7274 15.2155 35.0737 16.4144C34.4201 17.6133 34.0932 19.0976 34.0932 20.8674C34.0932 22.6372 34.4201 24.1215 35.0737 25.3204C35.7274 26.5193 36.5658 27.4185 37.5889 28.018C38.6405 28.6174 39.763 28.9171 40.9567 28.9171Z" stroke="black" stroke-width="2" mask="url(#path-1-outside-1_1726_372)"/>
<path d="M67.1229 32C65.1051 32 63.2862 31.5433 61.6662 30.6298C60.0747 29.6878 58.81 28.389 57.8722 26.7334C56.9627 25.0493 56.508 23.0939 56.508 20.8674C56.508 18.6409 56.9627 16.6998 57.8722 15.0442C58.81 13.36 60.0747 12.0612 61.6662 11.1478C63.2862 10.2058 65.1051 9.73481 67.1229 9.73481C69.6238 9.73481 71.7269 10.3913 73.4321 11.7044C75.1657 13.0175 76.2599 14.773 76.7146 16.971H73.0485C72.7643 15.6579 72.068 14.6446 70.9596 13.9309C69.8512 13.1888 68.5581 12.8177 67.0802 12.8177C65.8866 12.8177 64.764 13.1174 63.7125 13.7169C62.6609 14.3163 61.8083 15.2155 61.1547 16.4144C60.501 17.6133 60.1742 19.0976 60.1742 20.8674C60.1742 22.6372 60.501 24.1215 61.1547 25.3204C61.8083 26.5193 62.6609 27.4328 63.7125 28.0608C64.764 28.6602 65.8866 28.9599 67.0802 28.9599C68.5581 28.9599 69.8512 28.6031 70.9596 27.8895C72.068 27.1473 72.7643 26.1054 73.0485 24.7638H76.7146C76.2883 26.9047 75.2084 28.646 73.4748 29.9876C71.7411 31.3292 69.6238 32 67.1229 32Z" stroke="black" stroke-width="2" mask="url(#path-1-outside-1_1726_372)"/>
<path d="M90.3409 31.4862C88.4084 31.4862 86.8879 31.0152 85.7795 30.0732C84.6711 29.1312 84.117 27.4328 84.117 24.9779V13.2887H80.4508V10.2486H84.117L84.5859 5.15332H87.6979V10.2486H93.9219V13.2887H87.6979V24.9779C87.6979 26.3195 87.9679 27.233 88.5079 27.7182C89.0478 28.175 89.9999 28.4033 91.3641 28.4033H93.5808V31.4862H90.3409Z" stroke="black" stroke-width="2" mask="url(#path-1-outside-1_1726_372)"/>
<path d="M108.375 32C106.386 32 104.596 31.5433 103.004 30.6298C101.413 29.7164 100.148 28.4319 99.21 26.7762C98.3006 25.0921 97.8458 23.1225 97.8458 20.8674C97.8458 18.6123 98.3148 16.657 99.2526 15.0014C100.19 13.3172 101.455 12.0184 103.047 11.105C104.667 10.1915 106.471 9.73481 108.461 9.73481C110.45 9.73481 112.241 10.1915 113.832 11.105C115.424 12.0184 116.674 13.3172 117.584 15.0014C118.521 16.657 118.99 18.6123 118.99 20.8674C118.99 23.1225 118.521 25.0921 117.584 26.7762C116.646 28.4319 115.367 29.7164 113.747 30.6298C112.155 31.5433 110.365 32 108.375 32ZM108.375 28.9171C109.598 28.9171 110.734 28.6174 111.786 28.018C112.837 27.4185 113.69 26.5193 114.344 25.3204C114.997 24.1215 115.324 22.6372 115.324 20.8674C115.324 19.0976 114.997 17.6133 114.344 16.4144C113.718 15.2155 112.88 14.3163 111.828 13.7169C110.777 13.1174 109.654 12.8177 108.461 12.8177C107.239 12.8177 106.102 13.1174 105.05 13.7169C103.999 14.3163 103.146 15.2155 102.493 16.4144C101.839 17.6133 101.512 19.0976 101.512 20.8674C101.512 22.6372 101.839 24.1215 102.493 25.3204C103.146 26.5193 103.985 27.4185 105.008 28.018C106.059 28.6174 107.182 28.9171 108.375 28.9171Z" stroke="black" stroke-width="2" mask="url(#path-1-outside-1_1726_372)"/>
<path d="M124.822 31.4862V10.2486H128.062L128.36 14.3163C129.014 12.9176 130.009 11.8043 131.344 10.9765C132.68 10.1487 134.329 9.73481 136.289 9.73481V13.5028H135.309C134.059 13.5028 132.908 13.7311 131.856 14.1878C130.804 14.616 129.966 15.3582 129.341 16.4144C128.716 17.4705 128.403 18.9263 128.403 20.7818V31.4862H124.822Z" stroke="black" stroke-width="2" mask="url(#path-1-outside-1_1726_372)"/>
<path d="M154.632 32C151.62 32 149.034 31.3577 146.874 30.0732C144.714 28.7601 143.051 26.9475 141.886 24.6354C140.721 22.2947 140.138 19.5971 140.138 16.5428C140.138 13.4885 140.721 10.791 141.886 8.45027C143.051 6.10958 144.714 4.28269 146.874 2.96961C149.034 1.65654 151.62 1 154.632 1C158.213 1 161.141 1.89917 163.414 3.69751C165.716 5.46731 167.151 7.96501 167.72 11.1906H161.709C161.34 9.56354 160.544 8.29328 159.322 7.37983C158.128 6.43784 156.537 5.96685 154.547 5.96685C151.79 5.96685 149.63 6.90884 148.067 8.79282C146.504 10.6768 145.723 13.2601 145.723 16.5428C145.723 19.8255 146.504 22.4088 148.067 24.2928C149.63 26.1483 151.79 27.076 154.547 27.076C156.537 27.076 158.128 26.6478 159.322 25.7914C160.544 24.9065 161.34 23.6934 161.709 22.1519H167.72C167.151 25.2348 165.716 27.6469 163.414 29.3881C161.141 31.1294 158.213 32 154.632 32Z" stroke="black" stroke-width="2" mask="url(#path-1-outside-1_1726_372)"/>
<path d="M180.564 32C178.746 32 177.254 31.7145 176.088 31.1436C174.923 30.5442 174.056 29.7592 173.488 28.7887C172.919 27.8181 172.635 26.7477 172.635 25.5773C172.635 23.6077 173.403 22.0092 174.937 20.7818C176.472 19.5543 178.774 18.9406 181.843 18.9406H187.215V18.4268C187.215 16.971 186.803 15.9006 185.978 15.2155C185.154 14.5304 184.131 14.1878 182.909 14.1878C181.801 14.1878 180.834 14.459 180.01 15.0014C179.186 15.5152 178.675 16.2859 178.476 17.3135H173.147C173.289 15.7721 173.8 14.4305 174.682 13.2887C175.591 12.1469 176.756 11.2762 178.177 10.6768C179.598 10.0488 181.19 9.73481 182.952 9.73481C185.964 9.73481 188.337 10.4913 190.071 12.0041C191.805 13.517 192.671 15.6579 192.671 18.4268V31.4862H188.025L187.513 28.0608C186.888 29.2026 186.007 30.1446 184.87 30.8867C183.762 31.6289 182.327 32 180.564 32ZM181.801 27.7182C183.364 27.7182 184.572 27.2044 185.424 26.1768C186.305 25.1492 186.859 23.8789 187.087 22.366H182.44C180.991 22.366 179.953 22.6372 179.328 23.1796C178.703 23.6934 178.39 24.3356 178.39 25.1064C178.39 25.9342 178.703 26.5764 179.328 27.0331C179.953 27.4899 180.778 27.7182 181.801 27.7182Z" stroke="black" stroke-width="2" mask="url(#path-1-outside-1_1726_372)"/>
<path d="M198.731 31.4862V10.2486H203.591L204.103 14.2307C204.87 12.8605 205.907 11.7758 207.215 10.9765C208.55 10.1487 210.113 9.73481 211.904 9.73481V15.5152H210.369C209.176 15.5152 208.11 15.7007 207.172 16.0718C206.234 16.4429 205.495 17.0852 204.955 17.9986C204.444 18.9121 204.188 20.1823 204.188 21.8094V31.4862H198.731Z" stroke="black" stroke-width="2" mask="url(#path-1-outside-1_1726_372)"/>
<path d="M226.385 32C224.254 32 222.364 31.5433 220.715 30.6298C219.067 29.7164 217.774 28.4319 216.836 26.7762C215.898 25.1206 215.429 23.2081 215.429 21.0387C215.429 18.8407 215.884 16.8854 216.793 15.1727C217.731 13.4599 219.01 12.1326 220.63 11.1906C222.278 10.2201 224.211 9.73481 226.428 9.73481C228.502 9.73481 230.335 10.1915 231.927 11.105C233.519 12.0184 234.755 13.2744 235.636 14.8729C236.545 16.4429 237 18.1984 237 20.1395C237 20.4535 236.986 20.7818 236.957 21.1243C236.957 21.4669 236.943 21.8237 236.915 22.1948H220.843C220.957 23.8504 221.525 25.1492 222.548 26.0912C223.6 27.0331 224.865 27.5041 226.342 27.5041C227.451 27.5041 228.375 27.2615 229.113 26.7762C229.881 26.2624 230.449 25.6059 230.819 24.8066H236.361C235.963 26.1483 235.295 27.3757 234.357 28.489C233.448 29.5737 232.311 30.43 230.947 31.058C229.611 31.686 228.09 32 226.385 32ZM226.428 14.1878C225.092 14.1878 223.913 14.5732 222.889 15.3439C221.866 16.0861 221.213 17.2279 220.928 18.7693H231.458C231.373 17.3706 230.861 16.2574 229.923 15.4296C228.986 14.6017 227.82 14.1878 226.428 14.1878Z" stroke="black" stroke-width="2" mask="url(#path-1-outside-1_1726_372)"/>
</svg>
