
<svg width="414" height="549" viewBox="0 0 414 549" fill="none" xmlns="http://www.w3.org/2000/svg">
<g style="mix-blend-mode:hue">
<path d="M12.5 517.5L6.74223 515.812L6.68462 516.009L6.64055 516.209L12.5 517.5ZM27 465.5L32.8209 466.955L32.8261 466.934L32.8311 466.914L27 465.5ZM31 449L36.8311 450.414L36.939 449.969L36.9781 449.512L31 449ZM37.5 395.5L31.6595 394.126L31.601 394.374L31.5638 394.627L37.5 395.5ZM45.5 361.5L40.1334 358.817L39.82 359.444L39.6595 360.126L45.5 361.5ZM55 342.5L51.1352 337.911L50.1875 338.709L49.6334 339.817L55 342.5ZM64.5 334.5L61.8167 329.133L61.1798 329.452L60.6352 329.911L64.5 334.5ZM76.5 328.5L74.2282 322.947L74.0189 323.032L73.8167 323.133L76.5 328.5ZM87.5 324L86.0448 318.179L85.6269 318.284L85.2282 318.447L87.5 324ZM97.5 321.5V315.5H96.7614L96.0448 315.679L97.5 321.5ZM102 321.5V327.5H102.902L103.765 327.235L102 321.5ZM115 317.5L116.765 323.235L116.892 323.195L117.018 323.15L115 317.5ZM129 312.5L131.018 318.15L131.61 317.939L132.145 317.61L129 312.5ZM142 304.5L139.982 298.85L139.39 299.061L138.855 299.39L142 304.5ZM149 302L151.018 307.65L152.418 307.15L153.423 306.054L149 302ZM154.5 296L150.138 291.88L150.107 291.913L150.077 291.946L154.5 296ZM163 287L167.362 291.12L169 289.385V287H163ZM163 285H169V283.183L167.992 281.672L163 285ZM161 282L155.025 281.457L154.833 283.566L156.008 285.328L161 282ZM161.5 276.5L157.257 272.257L155.721 273.793L155.525 275.957L161.5 276.5ZM165 273L169.243 277.243L171 275.485V273H165ZM165 265.5L159.462 263.192L159 264.3V265.5H165ZM167.5 259.5L173.038 261.808L173.903 259.734L173.192 257.603L167.5 259.5ZM166 255L171.692 253.103L171.528 252.611L171.283 252.155L166 255ZM159 242L153.633 244.683L153.674 244.765L153.717 244.845L159 242ZM155.5 235L160.867 232.317L160.325 231.233L159.405 230.444L155.5 235ZM145 226L140.614 230.094L140.842 230.338L141.095 230.556L145 226ZM138 218.5L142.386 214.406L142.024 214.018L141.6 213.7L138 218.5ZM132 214L135.6 209.2L134 208H132V214ZM125 214L119.103 215.106L120.02 220H125V214ZM123.5 206L117.51 205.648L117.467 206.382L117.603 207.106L123.5 206ZM124 197.5L129.99 197.852L130.231 193.756L126.5 192.046L124 197.5ZM112 192L109.176 197.294L109.336 197.379L109.5 197.454L112 192ZM104.5 188L98.753 189.724L99.4712 192.118L101.676 193.294L104.5 188ZM101.5 178L96.8148 174.252L94.8487 176.709L95.753 179.724L101.5 178ZM109 167.5L114.692 169.397L116.481 164.03L111.228 161.929L109 167.5ZM101.5 164.5L103.728 158.929L102.313 158.363L100.799 158.541L101.5 164.5ZM101.5 144.5L103.397 150.192L103.397 150.192L101.5 144.5ZM94 143.5L88.1332 144.757L88.9168 148.414L92.5448 149.321L94 143.5ZM92.5 136.5L88.5952 131.944L85.8853 134.267L86.6332 137.757L92.5 136.5ZM91.5 118L87.6589 113.391L85.5 115.19V118H91.5ZM109 85.5L112.784 90.1567L113.147 89.8616L113.46 89.5138L109 85.5ZM118 75.5L122.46 79.5138L123.404 78.4652L123.781 77.1059L118 75.5ZM120.5 66.5L116.752 61.8148L115.238 63.026L114.719 64.8941L120.5 66.5ZM128 60.5L126.103 54.8079L125.087 55.1463L124.252 55.8148L128 60.5ZM137 57.5L138.897 63.1921L139.717 62.9189L140.426 62.4254L137 57.5ZM148.5 49.5L146.807 43.7438L145.873 44.0185L145.074 44.5746L148.5 49.5ZM167.5 38L171.877 42.1036L172.038 41.9319L172.185 41.7482L167.5 38ZM181 18L183.683 23.3666L190.114 20.1514L185.8 14.4L181 18ZM173.5 8L173.002 2.02073L162.191 2.9216L168.7 11.6L173.5 8ZM185.5 7L188.941 2.0846L187.164 0.840572L185.002 1.02073L185.5 7ZM191.5 11.5L195.743 7.25735L195.743 7.25735L191.5 11.5ZM195 21.5L189.219 23.1059L189.932 25.6744L192.317 26.8666L195 21.5ZM203 25.5L200.317 30.8666L201.795 31.6057L203.443 31.4836L203 25.5ZM216.5 24.5L216.943 30.4836L223.236 30.0174L222.454 23.7558L216.5 24.5ZM215.5 16.5L210.868 12.6858L209.226 14.6803L209.546 17.2442L215.5 16.5ZM222.5 8L224.905 2.50306L220.751 0.685655L217.868 4.18576L222.5 8ZM230.5 11.5L228.095 16.9969L228.66 17.2442L229.264 17.3713L230.5 11.5ZM240 13.5L243.951 8.98455L242.771 7.95179L241.236 7.6287L240 13.5ZM245 26.5L239.053 27.293L239.321 29.3064L240.757 30.7426L245 26.5ZM247.5 29L243.257 33.2426L246.391 36.3761L250.307 34.3027L247.5 29ZM256 24.5L256.597 18.5298L254.794 18.3495L253.193 19.1973L256 24.5ZM266 25.5L265.403 31.4702L268.408 31.7707L270.44 29.536L266 25.5ZM276 14.5L276.498 8.52073L273.55 8.27506L271.56 10.464L276 14.5ZM285.5 25.5L290.492 28.8282L291.871 26.7603L291.383 24.3233L285.5 25.5ZM281.5 31.5L276.508 28.1718L270.289 37.5H281.5V31.5ZM291.5 31.5L291.998 25.5207L291.75 25.5H291.5V31.5ZM303.5 32.5L308.745 29.5861L307.19 26.7867L303.998 26.5207L303.5 32.5ZM306 37L311.6 39.1539L312.607 36.537L311.245 34.0861L306 37ZM297 49L294.155 43.7172L291.967 44.8955L291.253 47.2759L297 49ZM295.5 54L289.753 52.2759L288.006 58.099L293.852 59.7691L295.5 54ZM302.5 56L300.852 61.7691L302.152 62.1407L303.486 61.9184L302.5 56ZM315.5 49L318.183 43.6334L313.933 41.5082L310.891 45.1589L315.5 49ZM319.5 51L324.492 54.3282L328.262 48.673L322.183 45.6334L319.5 51ZM315.5 57L310.508 53.6718L306.974 58.9726L312.477 62.1827L315.5 57ZM321.5 60.5L326.867 57.8167L326.067 56.218L324.523 55.3173L321.5 60.5ZM325 67.5H331V66.0836L330.367 64.8167L325 67.5ZM349 86V92H363.485L353.243 81.7574L349 86ZM335.5 86V80H327.175L329.808 87.8974L335.5 86ZM337 90.5L331.308 92.3974L331.351 92.5267L331.4 92.6539L337 90.5ZM342 101.5L344.977 106.709L348.516 104.687L347.94 100.652L342 101.5ZM344.5 111L350.038 108.692L349.767 108.041L349.352 107.471L344.5 111ZM347 117H353V115.8L352.538 114.692L347 117ZM348 136L342.041 136.701L342.298 138.886L343.906 140.386L348 136ZM355.5 143L360.588 146.18L363.208 141.987L359.594 138.614L355.5 143ZM342 158.5L339.982 152.85L334.749 154.718L336.211 160.079L342 158.5ZM333 184L328.008 180.672L328.008 180.672L333 184ZM331 190.5L325.117 189.323L325 189.906V190.5H331ZM321 197.5L318.893 203.118L320.643 203.774L322.455 203.321L321 197.5ZM317 196L319.107 190.382L317 189.592L314.893 190.382L317 196ZM313 197.5L310.893 191.882L307.651 193.098L307.082 196.514L313 197.5ZM308.5 206.5L303.133 203.817L301.199 207.685L304.257 210.743L308.5 206.5ZM305 227.5L307.873 232.767L308.877 232.22L309.609 231.341L305 227.5ZM299.5 230.5L302.183 235.867L302.279 235.819L302.373 235.767L299.5 230.5ZM291.5 234.5L288.817 229.133L287.192 229.946L286.291 231.523L291.5 234.5ZM282 241L280.545 246.821L282.167 247.226L283.765 246.735L282 241ZM276 239.5L277.455 233.679L271.634 232.224L270.179 238.045L276 239.5ZM274.5 245.5L275.677 251.383L279.4 250.639L280.321 246.955L274.5 245.5ZM269.5 246.5L266.413 251.645L268.402 252.838L270.677 252.383L269.5 246.5ZM264.5 243.5L267.587 238.355L262.226 235.139L259.233 240.627L264.5 243.5ZM261.5 249L256.233 246.127L256.097 246.376L255.985 246.636L261.5 249ZM260 252.5L254.485 250.136L253.249 253.02L254.912 255.68L260 252.5ZM261.5 266.5L255.753 264.776L255.644 265.139L255.582 265.514L261.5 266.5ZM261 269.5L255.082 268.514L254.888 269.678L255.149 270.83L261 269.5ZM263.5 280.5L257.649 281.83L257.995 283.353L259.04 284.514L263.5 280.5ZM268 285.5L272.736 281.816L272.604 281.646L272.46 281.486L268 285.5ZM271.5 290L266.764 293.684L267.285 294.353L267.971 294.852L271.5 290ZM277 294L281.243 289.757L280.91 289.424L280.529 289.148L277 294ZM280 297L285.209 294.023L284.811 293.326L284.243 292.757L280 297ZM282 300.5L276.791 303.477L277.527 304.765L278.779 305.562L282 300.5ZM287.5 304L284.279 309.062L284.287 309.067L284.296 309.073L287.5 304ZM297 310L300.26 304.963L300.232 304.945L300.204 304.927L297 310ZM317.5 321L315.228 326.553L315.486 326.659L315.753 326.74L317.5 321ZM329 324.5L327.253 330.24L327.353 330.27L327.454 330.297L329 324.5ZM336.5 326.5L338.397 320.808L338.223 320.75L338.046 320.703L336.5 326.5ZM342.5 328.5L340.603 334.192L340.603 334.192L342.5 328.5ZM354.5 334.5L351.716 339.815L351.865 339.893L352.017 339.962L354.5 334.5ZM377.5 354L382.972 351.538L382.788 351.131L382.547 350.755L377.5 354ZM382 364L387.927 363.064L387.801 362.271L387.472 361.538L382 364ZM383.5 373.5L377.573 374.436L377.593 374.557L377.617 374.677L383.5 373.5ZM385 381L390.9 379.907L390.892 379.865L390.883 379.823L385 381ZM387.5 394.5L393.434 393.61L393.418 393.508L393.4 393.407L387.5 394.5ZM390 417H396V416.74L395.977 416.48L390 417ZM390 429.5H384V429.676L384.01 429.852L390 429.5ZM390.5 438H396.5V437.824L396.49 437.648L390.5 438ZM390.5 457.5H384.5V457.667L384.509 457.833L390.5 457.5ZM391.5 475.5L385.509 475.833L385.534 476.279L385.624 476.716L391.5 475.5ZM394.5 490L400.383 488.823L400.38 488.804L400.376 488.784L394.5 490ZM397.5 505L403.397 503.894L403.391 503.859L403.383 503.823L397.5 505ZM399 513L393.103 514.106L393.141 514.312L393.194 514.515L399 513ZM402 524.5L407.874 523.276L407.843 523.13L407.806 522.985L402 524.5ZM404.5 536.5L398.626 537.724L398.688 538.019L398.779 538.307L404.5 536.5ZM407.5 546H413.5V545.075L413.221 544.193L407.5 546ZM11.8594 548.291L18.3594 518.791L6.64055 516.209L0.14055 545.709L11.8594 548.291ZM18.2578 519.188C19.674 514.356 21.8232 507.034 23.668 500.77C24.5906 497.638 25.4361 494.774 26.0755 492.62C26.3954 491.542 26.6623 490.646 26.8608 489.985C26.9603 489.654 27.0409 489.388 27.1015 489.19C27.1697 488.967 27.1944 488.89 27.1921 488.897L15.8079 485.103C15.3617 486.441 9.54022 506.266 6.74223 515.812L18.2578 519.188ZM27.1921 488.897C27.6887 487.407 31.2135 473.385 32.8209 466.955L21.1791 464.045C20.347 467.373 19.0741 472.44 17.96 476.821C17.4027 479.013 16.8873 481.025 16.4876 482.559C16.2874 483.327 16.1193 483.964 15.9909 484.438C15.8418 484.99 15.7919 485.151 15.8079 485.103L27.1921 488.897ZM32.8311 466.914L36.8311 450.414L25.1689 447.586L21.1689 464.086L32.8311 466.914ZM36.9781 449.512C37.2284 446.592 37.604 442.16 37.9173 438.355C38.2093 434.807 38.5 431.226 38.5 430.5H26.5C26.5 430.399 26.4692 430.95 26.3537 432.446C26.2533 433.747 26.1137 435.476 25.9577 437.37C25.646 441.157 25.2716 445.575 25.0219 448.488L36.9781 449.512ZM38.5 430.5C38.5 430.882 38.4549 431.162 38.498 430.79C38.5179 430.618 38.5502 430.359 38.5961 430.007C38.6872 429.309 38.8211 428.326 38.9896 427.114C39.3262 424.695 39.7933 421.419 40.3137 417.805C41.3542 410.58 42.6033 402.036 43.4362 396.373L31.5638 394.627C30.73 400.297 29.4791 408.853 28.4363 416.095C27.915 419.714 27.4447 423.013 27.1041 425.461C26.9341 426.682 26.7946 427.706 26.6969 428.455C26.6483 428.828 26.6074 429.153 26.5777 429.409C26.5711 429.466 26.5 430.018 26.5 430.5H38.5ZM43.3405 396.874L51.3405 362.874L39.6595 360.126L31.6595 394.126L43.3405 396.874ZM50.8666 364.183L60.3666 345.183L49.6334 339.817L40.1334 358.817L50.8666 364.183ZM58.8648 347.089L68.3648 339.089L60.6352 329.911L51.1352 337.911L58.8648 347.089ZM67.1833 339.867L79.1833 333.867L73.8167 323.133L61.8167 329.133L67.1833 339.867ZM78.7718 334.053L89.7718 329.553L85.2282 318.447L74.2282 322.947L78.7718 334.053ZM88.9552 329.821L98.9552 327.321L96.0448 315.679L86.0448 318.179L88.9552 329.821ZM97.5 327.5H102V315.5H97.5V327.5ZM103.765 327.235L116.765 323.235L113.235 311.765L100.235 315.765L103.765 327.235ZM117.018 323.15L131.018 318.15L126.982 306.85L112.982 311.85L117.018 323.15ZM132.145 317.61L145.145 309.61L138.855 299.39L125.855 307.39L132.145 317.61ZM144.018 310.15L151.018 307.65L146.982 296.35L139.982 298.85L144.018 310.15ZM153.423 306.054L158.923 300.054L150.077 291.946L144.577 297.946L153.423 306.054ZM158.862 300.12L167.362 291.12L158.638 282.88L150.138 291.88L158.862 300.12ZM169 287V285H157V287H169ZM167.992 281.672L165.992 278.672L156.008 285.328L158.008 288.328L167.992 281.672ZM166.975 282.543L167.475 277.043L155.525 275.957L155.025 281.457L166.975 282.543ZM165.743 280.743L169.243 277.243L160.757 268.757L157.257 272.257L165.743 280.743ZM171 273V265.5H159V273H171ZM170.538 267.808L173.038 261.808L161.962 257.192L159.462 263.192L170.538 267.808ZM173.192 257.603L171.692 253.103L160.308 256.897L161.808 261.397L173.192 257.603ZM171.283 252.155L164.283 239.155L153.717 244.845L160.717 257.845L171.283 252.155ZM164.367 239.317L160.867 232.317L150.133 237.683L153.633 244.683L164.367 239.317ZM159.405 230.444L148.905 221.444L141.095 230.556L151.595 239.556L159.405 230.444ZM149.386 221.906L142.386 214.406L133.614 222.594L140.614 230.094L149.386 221.906ZM141.6 213.7L135.6 209.2L128.4 218.8L134.4 223.3L141.6 213.7ZM132 208H125V220H132V208ZM130.897 212.894L129.397 204.894L117.603 207.106L119.103 215.106L130.897 212.894ZM129.49 206.352L129.99 197.852L118.01 197.148L117.51 205.648L129.49 206.352ZM126.5 192.046L114.5 186.546L109.5 197.454L121.5 202.954L126.5 192.046ZM114.824 186.706L107.324 182.706L101.676 193.294L109.176 197.294L114.824 186.706ZM110.247 186.276L107.247 176.276L95.753 179.724L98.753 189.724L110.247 186.276ZM106.185 181.748C106.812 180.964 107.8 179.766 108.703 178.74C109.16 178.222 109.544 177.805 109.822 177.525C109.964 177.383 110.026 177.329 110.021 177.333C110.017 177.337 109.96 177.386 109.859 177.46C109.777 177.519 109.54 177.688 109.183 177.867L103.817 167.133C103.021 167.531 102.426 168.038 102.199 168.233C101.879 168.508 101.576 168.8 101.315 169.062C100.79 169.59 100.224 170.212 99.6971 170.81C98.6336 172.017 97.521 173.369 96.8148 174.252L106.185 181.748ZM109.183 177.867C110.287 177.314 110.998 176.565 111.33 176.185C111.719 175.741 112.021 175.299 112.237 174.954C112.671 174.264 113.038 173.524 113.32 172.905C113.896 171.645 114.396 170.285 114.692 169.397L103.308 165.603C103.104 166.215 102.754 167.155 102.405 167.92C102.225 168.314 102.11 168.517 102.078 168.567C102.062 168.593 102.135 168.471 102.303 168.278C102.392 168.177 102.544 168.014 102.763 167.828C102.974 167.647 103.325 167.379 103.817 167.133L109.183 177.867ZM111.228 161.929L103.728 158.929L99.2717 170.071L106.772 173.071L111.228 161.929ZM100.799 158.541C99.4721 158.697 97.5293 158.878 95.99 158.928C95.1745 158.955 94.7247 158.936 94.5881 158.921C94.4556 158.906 94.8559 158.928 95.4461 159.16C95.7351 159.274 96.4711 159.59 97.2162 160.304C98.0687 161.121 99 162.557 99 164.5H87C87 166.543 87.9756 168.069 88.9124 168.967C89.7419 169.762 90.6025 170.15 91.052 170.327C91.9631 170.685 92.8282 170.799 93.2712 170.848C94.2858 170.96 95.4297 170.953 96.385 170.922C98.3873 170.856 100.695 170.636 102.201 170.459L100.799 158.541ZM99 164.5C99 164.208 98.9843 163.865 98.9724 163.619C98.9586 163.335 98.9397 162.995 98.9207 162.647C98.8813 161.932 98.8374 161.123 98.8084 160.34C98.7784 159.532 98.7699 158.881 98.7851 158.459C98.7934 158.23 98.8037 158.231 98.7813 158.372C98.7709 158.436 98.7288 158.695 98.6116 159.047C98.5509 159.23 98.4437 159.519 98.2648 159.859C98.0943 160.182 97.7782 160.707 97.2426 161.243L88.7574 152.757C87.7265 153.788 87.3392 154.916 87.2236 155.264C87.0588 155.76 86.9761 156.199 86.9316 156.478C86.8408 157.046 86.8081 157.606 86.793 158.025C86.7614 158.9 86.7841 159.906 86.8166 160.785C86.8501 161.689 86.8999 162.6 86.9387 163.306C86.9587 163.669 86.975 163.965 86.9866 164.203C87 164.479 87 164.542 87 164.5H99ZM97.2426 161.243C97.0067 161.479 96.7988 161.644 96.671 161.741C96.5356 161.843 96.4234 161.917 96.3508 161.963C96.211 162.052 96.1168 162.1 96.1038 162.107C96.077 162.12 96.1345 162.09 96.3095 162.018C96.646 161.878 97.1441 161.693 97.7099 161.505C98.2718 161.317 98.8117 161.156 99.2222 161.049C99.4299 160.995 99.5537 160.968 99.6019 160.959C99.6246 160.954 99.5949 160.961 99.5246 160.97C99.4723 160.976 99.2786 161 99 161V149C97.8634 149 96.6682 149.314 96.1996 149.436C95.4695 149.626 94.6657 149.87 93.9151 150.12C93.1684 150.369 92.3852 150.654 91.7062 150.936C91.3733 151.074 90.9894 151.243 90.6169 151.434C90.458 151.516 89.5553 151.959 88.7574 152.757L97.2426 161.243ZM99 161C98.3925 161 97.9377 160.889 97.7066 160.821C97.471 160.752 97.3295 160.686 97.3216 160.682C97.3093 160.676 97.3427 160.692 97.4631 160.756C97.6271 160.845 97.6796 160.876 97.9394 161.017C98.3136 161.221 98.9702 161.575 99.7369 161.869C100.511 162.165 101.643 162.5 103 162.5V150.5C103.607 150.5 103.989 150.647 104.029 150.662C104.061 150.675 103.999 150.654 103.686 150.483C103.509 150.386 102.895 150.038 102.35 149.787C102.038 149.642 101.603 149.459 101.088 149.308C100.578 149.158 99.8575 149 99 149V161ZM103 162.5C105.155 162.5 106.808 161.523 107.554 161.034C108.47 160.434 109.261 159.724 109.868 159.118C110.966 158.019 112.211 156.495 112.867 155.183L102.133 149.817C102.227 149.629 102.284 149.553 102.241 149.618C102.212 149.66 102.153 149.745 102.061 149.863C101.873 150.105 101.63 150.385 101.382 150.632C101.262 150.753 101.158 150.848 101.076 150.918C100.99 150.99 100.956 151.011 100.977 150.997C100.989 150.99 101.134 150.894 101.402 150.788C101.654 150.688 102.216 150.5 103 150.5V162.5ZM112.867 155.183C113.486 153.944 113.576 152.734 113.604 152.362C113.648 151.776 113.641 151.201 113.619 150.718C113.575 149.737 113.452 148.668 113.305 147.713C113.159 146.765 112.963 145.75 112.73 144.888C112.623 144.494 112.449 143.903 112.185 143.311C112.067 143.047 111.796 142.471 111.32 141.864C111.095 141.578 109.498 139.5 106.5 139.5V151.5C104.965 151.5 103.813 150.918 103.147 150.46C102.497 150.013 102.087 149.536 101.878 149.271C101.472 148.753 101.273 148.306 101.229 148.209C101.113 147.949 101.095 147.834 101.145 148.019C101.225 148.312 101.341 148.86 101.445 149.537C101.548 150.207 101.612 150.826 101.631 151.251C101.641 151.471 101.633 151.528 101.638 151.462C101.641 151.427 101.652 151.282 101.696 151.066C101.732 150.89 101.838 150.407 102.133 149.817L112.867 155.183ZM106.5 139.5C107.108 139.5 107.557 139.599 107.657 139.621C107.818 139.656 107.923 139.688 107.935 139.692C107.954 139.698 107.912 139.685 107.722 139.618C107.425 139.512 106.804 139.285 106.165 139.086C105.526 138.886 104.643 138.639 103.679 138.504C102.82 138.383 101.27 138.252 99.6026 138.808L103.397 150.192C102.891 150.361 102.495 150.391 102.306 150.397C102.202 150.4 102.125 150.397 102.08 150.394C102.035 150.391 102.01 150.387 102.008 150.387C102.006 150.387 102.02 150.388 102.05 150.395C102.08 150.401 102.122 150.41 102.175 150.423C102.284 150.45 102.42 150.488 102.585 150.539C102.946 150.652 103.263 150.769 103.716 150.929C103.9 150.995 104.186 151.095 104.471 151.181C104.616 151.225 104.839 151.289 105.099 151.345C105.298 151.389 105.83 151.5 106.5 151.5V139.5ZM99.6027 138.808C100.184 138.614 100.593 138.601 100.593 138.601C100.655 138.598 100.621 138.603 100.46 138.593C100.137 138.574 99.643 138.517 99.0038 138.414C97.7397 138.21 96.3372 137.9 95.4552 137.679L92.5448 149.321C93.6628 149.6 95.4103 149.99 97.0962 150.261C97.932 150.396 98.863 150.52 99.7462 150.572C100.357 150.609 101.894 150.693 103.397 150.192L99.6027 138.808ZM99.8668 142.243L98.3668 135.243L86.6332 137.757L88.1332 144.757L99.8668 142.243ZM96.4048 141.056C97.0515 140.501 98.0421 139.621 98.9511 138.745C99.402 138.311 99.8879 137.824 100.319 137.348C100.606 137.03 101.358 136.2 101.867 135.183L91.1334 129.817C91.2494 129.585 91.3536 129.422 91.405 129.345C91.4613 129.26 91.5012 129.208 91.5124 129.193C91.5315 129.168 91.5088 129.199 91.4216 129.296C91.2475 129.488 90.9772 129.764 90.6239 130.105C89.9246 130.779 89.1152 131.499 88.5952 131.944L96.4048 141.056ZM101.867 135.183C101.724 135.468 101.638 135.546 101.907 135.184C101.993 135.069 102.494 134.412 102.727 134.092C102.992 133.728 103.529 132.98 103.926 132.112C104.117 131.694 104.477 130.825 104.561 129.7C104.654 128.456 104.412 126.426 102.743 124.757L94.2574 133.243C92.7132 131.699 92.5174 129.841 92.5948 128.806C92.6633 127.889 92.946 127.267 93.0119 127.123C93.1586 126.802 93.2582 126.71 93.0226 127.033C92.7559 127.4 92.6949 127.463 92.2804 128.019C92.05 128.329 91.5257 129.032 91.1334 129.817L101.867 135.183ZM102.743 124.757C102.464 124.478 102.186 124.256 102.11 124.195C101.977 124.087 101.835 123.976 101.705 123.877C101.445 123.678 101.119 123.434 100.786 123.186C100.096 122.67 99.2854 122.065 98.4961 121.451C97.6838 120.82 97.0193 120.274 96.5954 119.882C96.3686 119.673 96.3511 119.635 96.4351 119.739C96.4742 119.787 96.6524 120.007 96.8475 120.366C96.9826 120.616 97.5 121.59 97.5 123H85.5C85.5 124.535 86.0682 125.662 86.2988 126.087C86.5893 126.623 86.9076 127.042 87.1255 127.31C87.5669 127.853 88.0611 128.335 88.4514 128.696C89.2619 129.445 90.2537 130.243 91.1289 130.924C92.0271 131.622 92.9353 132.299 93.6042 132.799C93.9513 133.058 94.2153 133.256 94.4064 133.402C94.754 133.669 94.5387 133.524 94.2574 133.243L102.743 124.757ZM97.5 123V118H85.5V123H97.5ZM95.3411 122.609C96.1833 121.907 98.5929 119.892 99.2426 119.243L90.7574 110.757C90.8247 110.69 90.7742 110.742 90.4765 111.003C90.2359 111.213 89.927 111.478 89.586 111.769C88.9062 112.347 88.1479 112.983 87.6589 113.391L95.3411 122.609ZM99.2426 119.243C99.9671 118.518 100.345 117.776 100.487 117.486C100.668 117.114 100.791 116.778 100.869 116.551C101.023 116.098 101.138 115.644 101.218 115.311C101.369 114.682 101.553 113.774 101.676 113.212C101.827 112.514 101.951 112.011 102.056 111.677C102.108 111.514 102.119 111.512 102.072 111.611C102.059 111.638 101.825 112.16 101.243 112.743L92.7574 104.257C91.925 105.09 91.4567 105.987 91.2232 106.481C90.9557 107.047 90.759 107.604 90.6155 108.057C90.3305 108.958 90.1101 109.924 89.9494 110.663C89.759 111.539 89.6627 112.037 89.5477 112.517C89.4945 112.739 89.4812 112.765 89.5084 112.685C89.522 112.645 89.5824 112.469 89.701 112.226C89.7798 112.064 90.0954 111.419 90.7574 110.757L99.2426 119.243ZM101.243 112.743C101.599 112.387 102.056 111.887 102.387 111.53C102.774 111.111 103.144 110.716 103.493 110.368C103.866 109.994 104.079 109.812 104.146 109.761C104.181 109.735 104.045 109.845 103.769 109.985C103.623 110.059 103.372 110.174 103.032 110.277C102.7 110.378 102.17 110.5 101.5 110.5V98.5C100.006 98.5 98.8677 99.0161 98.3521 99.277C97.7439 99.5846 97.2409 99.937 96.8851 100.207C96.171 100.75 95.5085 101.381 95.0074 101.882C94.4811 102.409 93.9755 102.951 93.5818 103.377C93.1315 103.863 92.9014 104.113 92.7574 104.257L101.243 112.743ZM101.5 110.5C102.951 110.5 104.177 110.038 104.776 109.788C105.536 109.472 106.282 109.065 106.953 108.617C107.6 108.186 108.383 107.581 109.078 106.799C109.578 106.237 111 104.533 111 102H99C99 100.89 99.338 100.072 99.5549 99.6504C99.7791 99.2145 100.007 98.9409 100.109 98.8263C100.305 98.6062 100.4 98.5639 100.297 98.6327C100.218 98.6852 100.152 98.7154 100.161 98.7115C100.169 98.7083 100.256 98.6716 100.417 98.6294C100.544 98.5961 100.936 98.5 101.5 98.5V110.5ZM111 102C111 101.148 110.821 100.453 110.765 100.236C110.68 99.9055 110.58 99.5999 110.497 99.3595C110.328 98.8732 110.118 98.3461 109.912 97.853C109.495 96.8529 108.957 95.6626 108.457 94.5679C107.934 93.4252 107.464 92.4111 107.099 91.5989C106.918 91.1938 106.797 90.9149 106.729 90.7476C106.692 90.6565 106.7 90.6707 106.726 90.7494C106.739 90.7858 106.781 90.9122 106.827 91.0929C106.843 91.1561 107 91.7335 107 92.5H95C95 93.2978 95.1646 93.921 95.1957 94.0439C95.2567 94.2843 95.3217 94.4841 95.3634 94.6068C95.4487 94.8581 95.5428 95.0964 95.6151 95.2739C95.7657 95.6437 95.9573 96.0797 96.1506 96.5105C96.5362 97.3702 97.0655 98.5123 97.5432 99.5571C98.0427 100.65 98.5054 101.678 98.838 102.475C99.0071 102.88 99.1091 103.146 99.1593 103.291C99.1853 103.366 99.1717 103.335 99.145 103.232C99.1311 103.178 99.1017 103.058 99.0735 102.893C99.0492 102.749 99 102.426 99 102H111ZM107 92.5C107 93.9209 106.484 94.9314 106.373 95.1511C106.186 95.5226 106.003 95.7839 105.924 95.8929C105.83 96.0228 105.755 96.1145 105.718 96.1576C105.678 96.205 105.651 96.2342 105.645 96.2415C105.643 96.2432 105.733 96.1488 105.97 95.9278C106.417 95.51 107.091 94.9161 107.906 94.2172C109.518 92.8348 111.474 91.2209 112.784 90.1567L105.216 80.8433C103.86 81.9457 101.815 83.6319 100.094 85.1078C99.2427 85.8381 98.4161 86.563 97.7803 87.1566C97.4753 87.4413 97.1279 87.7758 96.8242 88.105C96.6848 88.2562 96.4414 88.5272 96.1969 88.8657C96.0785 89.0296 95.8649 89.3388 95.6573 89.7507C95.5262 90.0108 95 91.0541 95 92.5H107ZM113.46 89.5138L122.46 79.5138L113.54 71.4862L104.54 81.4862L113.46 89.5138ZM123.781 77.1059L126.281 68.1059L114.719 64.8941L112.219 73.8941L123.781 77.1059ZM124.248 71.1852L131.748 65.1852L124.252 55.8148L116.752 61.8148L124.248 71.1852ZM129.897 66.1921L138.897 63.1921L135.103 51.8079L126.103 54.8079L129.897 66.1921ZM140.426 62.4254L151.926 54.4254L145.074 44.5746L133.574 52.5746L140.426 62.4254ZM150.193 55.2562C152.948 54.4459 159.065 52.6361 160.397 52.1921L156.603 40.8079C155.535 41.1639 149.719 42.8875 146.807 43.7438L150.193 55.2562ZM160.397 52.1921C161.501 51.8243 162.362 51.1961 162.653 50.9853C163.107 50.6558 163.563 50.2811 163.978 49.9232C164.818 49.1996 165.771 48.3025 166.7 47.3974C168.571 45.5736 170.587 43.4796 171.877 42.1036L163.123 33.8964C161.913 35.1871 160.029 37.1431 158.325 38.8026C157.467 39.6391 156.714 40.3421 156.144 40.833C155.855 41.0825 155.68 41.2187 155.605 41.2733C155.366 41.4466 155.799 41.0757 156.603 40.8079L160.397 52.1921ZM172.185 41.7482C173.202 40.4776 174.732 38.5394 176.019 36.8531C176.657 36.0175 177.271 35.1973 177.74 34.5357C177.966 34.2156 178.213 33.8571 178.423 33.5189C178.521 33.3601 178.677 33.1021 178.828 32.7984C178.902 32.6497 179.025 32.39 179.142 32.0612C179.216 31.8524 179.5 31.0561 179.5 30H167.5C167.5 28.9689 167.776 28.2068 167.835 28.0409C167.937 27.755 168.037 27.547 168.081 27.4582C168.133 27.3537 168.175 27.2801 168.193 27.2478C168.204 27.2291 168.212 27.2153 168.217 27.2069C168.222 27.1985 168.225 27.1938 168.226 27.1932C168.226 27.1927 168.22 27.2025 168.206 27.2242C168.192 27.2455 168.173 27.2742 168.148 27.3111C168.097 27.3857 168.031 27.4812 167.948 27.5987C167.604 28.084 167.093 28.77 166.481 29.5719C165.268 31.1606 163.798 33.0224 162.815 34.2518L172.185 41.7482ZM179.5 30C179.5 29.7569 179.481 29.3763 179.474 29.2351C179.462 28.9794 179.447 28.661 179.433 28.2914C179.403 27.5471 179.375 26.6362 179.375 25.75C179.375 24.8186 179.407 24.1037 179.457 23.6836C179.486 23.4472 179.492 23.5502 179.401 23.8329C179.355 23.975 179.221 24.3635 178.926 24.8388C178.655 25.2755 177.98 26.2181 176.683 26.8666L171.317 16.1334C169.895 16.8444 169.107 17.9042 168.733 18.5059C168.335 19.1463 168.11 19.7476 167.982 20.1437C167.727 20.9342 167.608 21.7091 167.543 22.2539C167.406 23.3963 167.375 24.6814 167.375 25.75C167.375 26.8638 167.41 27.9529 167.442 28.7711C167.484 29.8179 167.5 30.0274 167.5 30H179.5ZM176.683 26.8666L183.683 23.3666L178.317 12.6334L171.317 16.1334L176.683 26.8666ZM185.8 14.4L178.3 4.4L168.7 11.6L176.2 21.6L185.8 14.4ZM173.998 13.9793L185.998 12.9793L185.002 1.02073L173.002 2.02073L173.998 13.9793ZM182.059 11.9154C182.863 12.4782 184.121 13.3734 185.263 14.2157C185.836 14.6382 186.353 15.028 186.758 15.3457C187.244 15.7265 187.346 15.8312 187.257 15.7426L195.743 7.25735C194.95 6.46519 193.435 5.33239 192.387 4.55929C191.145 3.64325 189.803 2.68844 188.941 2.0846L182.059 11.9154ZM187.257 15.7426C186.642 15.1269 186.404 14.5728 186.507 14.7747C186.524 14.8069 186.591 14.9468 186.707 15.2341C186.936 15.7979 187.223 16.6002 187.542 17.5618C188.173 19.4662 188.819 21.6671 189.219 23.1059L200.781 19.8941C200.347 18.3329 199.644 15.9338 198.933 13.7882C198.581 12.7248 198.199 11.6396 197.827 10.7222C197.643 10.2689 197.426 9.76963 197.185 9.298C197.03 8.99595 196.558 8.07312 195.743 7.25735L187.257 15.7426ZM192.317 26.8666L200.317 30.8666L205.683 20.1334L197.683 16.1334L192.317 26.8666ZM203.443 31.4836L216.943 30.4836L216.057 18.5164L202.557 19.5164L203.443 31.4836ZM222.454 23.7558L221.454 15.7558L209.546 17.2442L210.546 25.2442L222.454 23.7558ZM220.132 20.3142L227.132 11.8142L217.868 4.18576L210.868 12.6858L220.132 20.3142ZM220.095 13.4969L228.095 16.9969L232.905 6.00306L224.905 2.50306L220.095 13.4969ZM229.264 17.3713L238.764 19.3713L241.236 7.6287L231.736 5.6287L229.264 17.3713ZM236.049 18.0155C236.625 18.5193 237.479 19.3121 238.145 20.0151C238.491 20.3796 238.672 20.6013 238.729 20.6784C238.761 20.7223 238.666 20.6014 238.538 20.3503C238.471 20.2189 238.355 19.975 238.249 19.6397C238.149 19.3234 238 18.7479 238 18H250C250 16.4578 249.432 15.2989 249.228 14.8993C248.949 14.352 248.635 13.8928 248.396 13.5684C247.911 12.9092 247.343 12.2746 246.855 11.7599C245.854 10.7046 244.709 9.6474 243.951 8.98455L236.049 18.0155ZM238 18C238 18.8689 238.241 20.8753 238.419 22.3371C238.631 24.0792 238.884 26.0282 239.053 27.293L250.947 25.707C250.783 24.4718 250.536 22.5708 250.331 20.8879C250.228 20.044 250.139 19.276 250.076 18.6819C249.996 17.9278 250 17.8119 250 18H238ZM240.757 30.7426L243.257 33.2426L251.743 24.7574L249.243 22.2574L240.757 30.7426ZM250.307 34.3027L258.807 29.8027L253.193 19.1973L244.693 23.6973L250.307 34.3027ZM255.403 30.4702L265.403 31.4702L266.597 19.5298L256.597 18.5298L255.403 30.4702ZM270.44 29.536L280.44 18.536L271.56 10.464L261.56 21.464L270.44 29.536ZM275.502 20.4793C276.296 20.5454 277.54 20.7094 278.577 20.9532C279.106 21.0777 279.395 21.1801 279.483 21.2182C279.523 21.2352 279.397 21.1866 279.183 21.0418C278.998 20.916 278.484 20.543 278.008 19.8282L287.992 13.1718C286.769 11.3367 284.947 10.5049 284.217 10.1912C283.23 9.76782 282.194 9.4765 281.323 9.27177C279.56 8.85722 277.704 8.62123 276.498 8.52073L275.502 20.4793ZM278.008 19.8282C277.792 19.5039 277.724 19.3063 277.779 19.4378C277.811 19.5162 277.873 19.6783 277.961 19.9431C278.135 20.472 278.339 21.1843 278.554 22.0155C278.981 23.6677 279.382 25.5046 279.617 26.6767L291.383 24.3233C291.118 22.9954 290.669 20.9323 290.171 19.0095C289.924 18.0532 289.646 17.0592 289.355 16.1787C289.133 15.5076 288.696 14.2277 287.992 13.1718L278.008 19.8282ZM280.508 22.1718L276.508 28.1718L286.492 34.8282L290.492 28.8282L280.508 22.1718ZM281.5 37.5H291.5V25.5H281.5V37.5ZM291.002 37.4793L303.002 38.4793L303.998 26.5207L291.998 25.5207L291.002 37.4793ZM298.255 35.4139L300.755 39.9139L311.245 34.0861L308.745 29.5861L298.255 35.4139ZM300.4 34.8461C299.967 35.9706 299.317 37.7122 298.768 39.2993C298.495 40.0863 298.227 40.8932 298.021 41.591C297.918 41.9357 297.812 42.3169 297.727 42.6891C297.675 42.9115 297.5 43.6551 297.5 44.5H309.5C309.5 45.1449 309.377 45.5718 309.42 45.3847C309.428 45.3475 309.459 45.2263 309.526 44.9997C309.658 44.5548 309.859 43.9429 310.107 43.2257C310.599 41.8045 311.199 40.1961 311.6 39.1539L300.4 34.8461ZM297.5 44.5C297.5 43.2477 297.904 42.3364 298.114 41.9269C298.346 41.4767 298.582 41.1771 298.689 41.0471C298.901 40.7917 299.036 40.6934 298.939 40.7748C298.775 40.9117 298.402 41.1859 297.795 41.5801C296.624 42.3403 295.152 43.1804 294.155 43.7172L299.845 54.2828C301.014 53.6529 302.792 52.643 304.33 51.6449C305.077 51.1599 305.923 50.5779 306.639 49.9783C306.982 49.6915 307.473 49.2549 307.93 48.7033C308.16 48.4251 308.491 47.988 308.787 47.4122C309.062 46.8772 309.5 45.8523 309.5 44.5H297.5ZM291.253 47.2759L289.753 52.2759L301.247 55.7241L302.747 50.7241L291.253 47.2759ZM293.852 59.7691L300.852 61.7691L304.148 50.2309L297.148 48.2309L293.852 59.7691ZM303.486 61.9184C304.463 61.7555 305.977 61.5114 307.333 61.3097C308.014 61.2083 308.626 61.122 309.1 61.0623C309.729 60.9831 309.748 61 309.5 61V49C308.852 49 308.046 49.1002 307.6 49.1564C306.999 49.2322 306.286 49.3333 305.567 49.4403C304.123 49.6553 302.537 49.9111 301.514 50.0816L303.486 61.9184ZM309.5 61C310.694 61 311.605 60.6557 312.024 60.4784C312.51 60.2719 312.901 60.04 313.161 59.8731C313.68 59.5398 314.134 59.1688 314.465 58.8822C315.151 58.2891 315.874 57.5652 316.518 56.8901C317.831 55.5121 319.224 53.904 320.109 52.8411L310.891 45.1589C310.11 46.096 308.902 47.4879 307.832 48.6099C307.284 49.1848 306.87 49.5859 306.616 49.8053C306.478 49.9249 306.511 49.8821 306.677 49.7753C306.761 49.7217 306.992 49.5777 307.338 49.4308C307.616 49.3131 308.406 49 309.5 49V61ZM312.817 54.3666L316.817 56.3666L322.183 45.6334L318.183 43.6334L312.817 54.3666ZM314.508 47.6718L310.508 53.6718L320.492 60.3282L324.492 54.3282L314.508 47.6718ZM312.477 62.1827L318.477 65.6827L324.523 55.3173L318.523 51.8173L312.477 62.1827ZM316.133 63.1833L319.633 70.1833L330.367 64.8167L326.867 57.8167L316.133 63.1833ZM319 67.5V72H331V67.5H319ZM319 72C319 74.226 320.215 75.6505 320.386 75.8584C320.762 76.3182 321.129 76.6313 321.305 76.7756C321.685 77.0879 322.058 77.3259 322.273 77.4594C322.751 77.7559 323.314 78.0594 323.842 78.3317C324.935 78.8959 326.347 79.5668 327.767 80.2122C329.197 80.8621 330.704 81.5177 332.004 82.051C333.145 82.5191 334.55 83.0723 335.545 83.3209L338.455 71.6791C338.543 71.7011 338.426 71.674 337.991 71.513C337.614 71.3736 337.129 71.1829 336.559 70.949C335.421 70.4823 334.053 69.8879 332.733 69.2878C331.403 68.6832 330.19 68.1041 329.346 67.6683C328.905 67.4406 328.67 67.3066 328.594 67.2593C328.532 67.2209 328.688 67.3105 328.921 67.5018C329.023 67.5855 329.334 67.8449 329.672 68.2583C329.845 68.47 330.127 68.8444 330.386 69.3667C330.633 69.8665 331 70.7867 331 72H319ZM335.545 83.3209C335.538 83.3191 335.82 83.4026 336.433 83.6757C336.984 83.9215 337.625 84.2405 338.267 84.5883C338.91 84.9366 339.494 85.2812 339.936 85.5662C340.158 85.7089 340.31 85.8152 340.4 85.8817C340.522 85.9722 340.434 85.9194 340.257 85.7426L348.743 77.2574C348.003 76.5172 347.058 75.8802 346.439 75.4807C345.693 75 344.84 74.5009 343.983 74.0367C342.45 73.2065 340.25 72.1279 338.455 71.6791L335.545 83.3209ZM340.257 85.7426L344.757 90.2426L353.243 81.7574L348.743 77.2574L340.257 85.7426ZM349 80H335.5V92H349V80ZM329.808 87.8974L331.308 92.3974L342.692 88.6026L341.192 84.1026L329.808 87.8974ZM331.4 92.6539C331.85 93.823 332.581 95.6135 333.331 97.2119C333.7 97.9973 334.129 98.8574 334.575 99.6072C334.793 99.975 335.087 100.438 335.444 100.89C335.662 101.166 336.462 102.189 337.817 102.867L343.183 92.1335C343.858 92.471 344.291 92.8587 344.472 93.0309C344.681 93.2296 344.812 93.3905 344.864 93.456C344.963 93.5815 344.973 93.6151 344.891 93.4771C344.735 93.2155 344.496 92.7569 344.194 92.1131C343.603 90.8531 342.984 89.3436 342.6 88.3461L331.4 92.6539ZM337.817 102.867C336.977 102.447 336.466 101.918 336.225 101.636C335.97 101.337 335.832 101.095 335.781 101.003C335.688 100.832 335.699 100.806 335.766 101.021C335.823 101.201 335.885 101.438 335.943 101.704C335.999 101.967 336.039 102.199 336.06 102.348L347.94 100.652C347.824 99.8413 347.588 98.6042 347.209 97.4043C347.022 96.815 346.739 96.0324 346.315 95.2559C346.01 94.6959 345.09 93.0867 343.183 92.1335L337.817 102.867ZM339.023 96.2905C338.219 96.7501 336.908 97.5934 335.816 98.6613C335.334 99.1336 334.385 100.131 333.811 101.576C333.498 102.367 333.195 103.55 333.382 104.961C333.583 106.469 334.286 107.772 335.257 108.743L343.743 100.257C344.514 101.028 345.108 102.108 345.277 103.377C345.433 104.548 345.174 105.475 344.967 105.999C344.76 106.52 344.521 106.857 344.416 106.996C344.298 107.151 344.216 107.232 344.209 107.239C344.202 107.245 344.287 107.166 344.482 107.027C344.663 106.899 344.847 106.784 344.977 106.709L339.023 96.2905ZM335.257 108.743C335.185 108.67 335.316 108.805 335.742 109.339C336.101 109.788 336.543 110.36 337.02 110.989C337.973 112.245 338.998 113.635 339.648 114.529L349.352 107.471C348.669 106.531 347.594 105.072 346.58 103.736C345.71 102.589 344.503 101.018 343.743 100.257L335.257 108.743ZM338.962 113.308L341.462 119.308L352.538 114.692L350.038 108.692L338.962 113.308ZM341 117V127H353V117H341ZM341 127C341 127.511 341.1 128.407 341.143 128.807C341.213 129.469 341.308 130.333 341.413 131.26C341.623 133.119 341.874 135.279 342.041 136.701L353.959 135.299C353.793 133.888 353.544 131.748 353.337 129.915C353.233 128.996 353.142 128.166 353.076 127.546C353.043 127.234 353.019 126.992 353.003 126.826C352.973 126.499 353 126.701 353 127H341ZM343.906 140.386L351.406 147.386L359.594 138.614L352.094 131.614L343.906 140.386ZM350.412 139.82C350.053 140.394 349.466 141.284 348.911 142.036C348.629 142.417 348.418 142.678 348.292 142.819C348.229 142.89 348.244 142.867 348.328 142.791C348.373 142.75 348.467 142.668 348.605 142.566C348.735 142.471 348.977 142.304 349.317 142.133L354.683 152.867C356.027 152.195 356.969 151.118 357.242 150.813C357.717 150.281 358.175 149.691 358.564 149.164C359.351 148.099 360.114 146.939 360.588 146.18L350.412 139.82ZM349.317 142.133C349.988 141.798 350.481 141.772 349.724 141.909C349.4 141.968 348.536 142.109 347.823 142.268C347.15 142.418 345.902 142.722 344.709 143.39C343.552 144.038 341 145.912 341 149.5H353C353 150.766 352.542 151.867 351.927 152.665C351.382 153.372 350.81 153.727 350.572 153.86C350.434 153.938 350.327 153.985 350.268 154.01C350.237 154.023 350.214 154.031 350.199 154.037C350.185 154.042 350.176 154.045 350.176 154.045C350.175 154.045 350.18 154.044 350.192 154.04C350.204 154.037 350.22 154.032 350.242 154.026C350.287 154.014 350.348 154 350.427 153.982C350.839 153.891 351.162 153.844 351.87 153.716C352.157 153.664 352.546 153.59 352.94 153.492C353.268 153.411 353.955 153.231 354.683 152.867L349.317 142.133ZM341 149.5C341 150.984 341.444 152.281 341.684 152.93C341.97 153.703 342.319 154.456 342.571 154.992C342.872 155.631 343.034 155.963 343.158 156.258C343.212 156.388 343.202 156.378 343.171 156.276C343.163 156.249 343 155.746 343 155H355C355 154.004 354.775 153.189 354.657 152.8C354.517 152.337 354.35 151.917 354.217 151.601C353.966 151.005 353.628 150.306 353.429 149.883C353.181 149.356 353.03 149.015 352.941 148.773C352.806 148.407 353 148.766 353 149.5H341ZM343 155C343 153.6 343.499 152.579 343.804 152.071C344.121 151.545 344.446 151.207 344.6 151.056C344.902 150.761 345.111 150.643 345.021 150.7C344.887 150.785 344.518 150.988 343.868 151.287C342.624 151.858 341.051 152.468 339.982 152.85L344.018 164.15C345.282 163.699 347.209 162.958 348.882 162.188C349.691 161.817 350.633 161.351 351.447 160.834C351.832 160.591 352.424 160.19 352.99 159.636C353.243 159.388 355 157.74 355 155H343ZM336.211 160.079C336.451 160.957 336.81 162.322 337.105 163.544C337.253 164.16 337.374 164.693 337.454 165.091C337.495 165.292 337.516 165.414 337.525 165.47C337.545 165.603 337.5 165.378 337.5 165H349.5C349.5 164.094 349.294 163.1 349.218 162.719C349.095 162.109 348.934 161.411 348.77 160.731C348.44 159.361 348.049 157.877 347.789 156.921L336.211 160.079ZM337.5 165C337.5 164.173 337.696 163.581 337.78 163.352C337.83 163.215 337.875 163.116 337.902 163.06C337.929 163.004 337.947 162.972 337.948 162.97C337.95 162.966 337.943 162.98 337.921 163.014C337.9 163.048 337.87 163.094 337.83 163.155C337.745 163.281 337.637 163.435 337.493 163.638C337.238 163.994 336.807 164.584 336.423 165.151C336.025 165.738 335.55 166.483 335.133 167.317L345.867 172.683C346.1 172.216 346.48 171.7 347.257 170.612C347.563 170.184 348.017 169.543 348.395 168.874C348.654 168.417 349.5 166.925 349.5 165H337.5ZM335.133 167.317C335.321 166.942 335.408 166.953 334.911 167.464C334.497 167.889 333.971 168.369 333.287 168.988C332.68 169.538 331.875 170.261 331.201 170.955C330.856 171.31 330.448 171.757 330.068 172.262C329.729 172.712 329.167 173.525 328.808 174.603L340.192 178.397C340.063 178.785 339.917 179.061 339.832 179.207C339.744 179.359 339.674 179.453 339.653 179.482C339.618 179.528 339.651 179.479 339.814 179.311C340.156 178.958 340.633 178.525 341.338 177.887C341.966 177.318 342.784 176.58 343.511 175.833C344.154 175.172 345.179 174.058 345.867 172.683L335.133 167.317ZM328.808 174.603C328.477 175.597 328.327 176.701 328.246 177.315C328.172 177.878 328.042 179.043 327.984 179.506C327.896 180.21 327.815 180.723 327.734 181.083C327.62 181.585 327.622 181.251 328.008 180.672L337.992 187.328C338.878 185.999 339.255 184.54 339.438 183.73C339.654 182.777 339.792 181.79 339.891 180.994C340.021 179.957 340.046 179.622 340.145 178.873C340.236 178.174 340.273 178.153 340.192 178.397L328.808 174.603ZM328.008 180.672C327.002 182.181 326.372 184.308 326.052 185.442C325.642 186.888 325.307 188.369 325.117 189.323L336.883 191.677C337.026 190.964 337.291 189.795 337.598 188.708C337.752 188.164 337.897 187.711 338.021 187.377C338.18 186.95 338.19 187.031 337.992 187.328L328.008 180.672ZM325 190.5C325 190.952 324.961 191.632 324.88 192.122C324.836 192.388 324.819 192.352 324.904 192.135C324.948 192.021 325.082 191.696 325.366 191.293C325.637 190.908 326.242 190.171 327.317 189.633L332.683 200.367C335.02 199.198 335.868 197.048 336.083 196.496C336.431 195.606 336.614 194.72 336.72 194.078C336.939 192.752 337 191.382 337 190.5H325ZM327.317 189.633C327.626 189.479 327.807 189.431 327.572 189.511C327.433 189.558 327.216 189.626 326.914 189.717C326.313 189.896 325.521 190.118 324.633 190.358C322.864 190.837 320.854 191.352 319.545 191.679L322.455 203.321C323.813 202.981 325.902 202.446 327.767 201.942C328.696 201.69 329.603 201.437 330.349 201.215C330.846 201.066 331.914 200.751 332.683 200.367L327.317 189.633ZM323.107 191.882L319.107 190.382L314.893 201.618L318.893 203.118L323.107 191.882ZM314.893 190.382L310.893 191.882L315.107 203.118L319.107 201.618L314.893 190.382ZM307.082 196.514C307.02 196.885 306.914 197.393 306.82 197.722C306.761 197.926 306.779 197.807 306.913 197.533C306.968 197.421 307.199 196.951 307.671 196.421C308.022 196.026 309.478 194.5 312 194.5V206.5C314.622 206.5 316.179 204.911 316.631 204.403C317.204 203.76 317.536 203.126 317.69 202.811C318.023 202.131 318.235 201.449 318.355 201.028C318.619 200.107 318.814 199.115 318.918 198.486L307.082 196.514ZM312 194.5C309.803 194.5 308.377 195.686 308.18 195.842C307.718 196.208 307.392 196.571 307.231 196.758C306.886 197.159 306.603 197.571 306.421 197.846C306.028 198.439 305.611 199.155 305.24 199.818C304.478 201.179 303.657 202.769 303.133 203.817L313.867 209.183C314.343 208.231 315.072 206.821 315.71 205.682C316.039 205.095 316.284 204.686 316.429 204.467C316.516 204.335 316.471 204.419 316.32 204.593C316.257 204.667 316.018 204.942 315.632 205.248C315.434 205.405 315.076 205.668 314.575 205.91C314.103 206.139 313.199 206.5 312 206.5V194.5ZM304.257 210.743C304.754 211.239 305.493 212.023 306.069 212.718C306.367 213.077 306.523 213.294 306.572 213.371C306.599 213.412 306.521 213.3 306.418 213.069C306.364 212.948 306.273 212.729 306.191 212.431C306.113 212.149 306 211.648 306 211H318C318 209.635 317.558 208.585 317.377 208.18C317.142 207.653 316.873 207.203 316.663 206.876C316.238 206.216 315.737 205.577 315.306 205.057C314.423 203.993 313.413 202.928 312.743 202.257L304.257 210.743ZM306 211C306 210.828 306.009 210.822 305.978 211.182C305.955 211.455 305.918 211.826 305.87 212.273C305.775 213.164 305.64 214.282 305.492 215.384C305.341 216.501 305.184 217.53 305.046 218.271C304.975 218.655 304.927 218.859 304.91 218.923C304.899 218.964 304.927 218.849 305.003 218.652C305.041 218.553 305.125 218.346 305.264 218.088C305.374 217.884 305.683 217.332 306.257 216.757L314.743 225.243C315.752 224.233 316.154 223.086 316.195 222.98C316.341 222.604 316.442 222.254 316.506 222.013C316.639 221.512 316.752 220.962 316.844 220.463C317.035 219.439 317.222 218.187 317.383 216.991C317.676 214.823 318 211.994 318 211H306ZM306.257 216.757C305.821 217.194 304.613 218.626 303.637 219.783C302.511 221.12 301.228 222.654 300.391 223.659L309.609 231.341C310.438 230.346 311.706 228.83 312.813 227.517C313.368 226.858 313.874 226.26 314.263 225.806C314.752 225.235 314.85 225.135 314.743 225.243L306.257 216.757ZM302.127 222.233L296.627 225.233L302.373 235.767L307.873 232.767L302.127 222.233ZM296.817 225.133L288.817 229.133L294.183 239.867L302.183 235.867L296.817 225.133ZM286.291 231.523C285.977 232.072 285.483 232.918 285.031 233.658C284.803 234.031 284.609 234.337 284.468 234.55C284.435 234.6 284.408 234.639 284.388 234.668C284.368 234.697 284.359 234.709 284.362 234.706C284.362 234.706 284.387 234.671 284.434 234.614C284.47 234.569 284.584 234.431 284.757 234.257L293.243 242.743C293.842 242.143 294.331 241.389 294.463 241.191C294.724 240.798 295.006 240.348 295.269 239.917C295.8 239.049 296.356 238.095 296.709 237.477L286.291 231.523ZM284.757 234.257C285.273 233.742 285.752 233.465 285.816 233.427C285.965 233.339 286.065 233.291 286.072 233.288C286.09 233.28 286.022 233.312 285.826 233.39C285.45 233.54 284.893 233.742 284.211 233.976C282.863 234.44 281.28 234.944 280.235 235.265L283.765 246.735C284.887 246.389 286.603 245.844 288.114 245.324C288.861 245.067 289.623 244.794 290.259 244.541C290.568 244.418 290.929 244.268 291.275 244.102C291.445 244.02 291.683 243.9 291.942 243.746C292.116 243.643 292.677 243.308 293.243 242.743L284.757 234.257ZM283.455 235.179L277.455 233.679L274.545 245.321L280.545 246.821L283.455 235.179ZM270.179 238.045L268.679 244.045L280.321 246.955L281.821 240.955L270.179 238.045ZM273.323 239.617L268.323 240.617L270.677 252.383L275.677 251.383L273.323 239.617ZM272.587 241.355L267.587 238.355L261.413 248.645L266.413 251.645L272.587 241.355ZM259.233 240.627L256.233 246.127L266.767 251.873L269.767 246.373L259.233 240.627ZM255.985 246.636L254.485 250.136L265.515 254.864L267.015 251.364L255.985 246.636ZM254.912 255.68C255.277 256.263 255.825 257.186 256.26 258.008C256.482 258.428 256.625 258.727 256.697 258.897C256.733 258.983 256.715 258.952 256.679 258.832C256.66 258.768 256.622 258.635 256.587 258.447C256.554 258.276 256.5 257.94 256.5 257.5H268.5C268.5 256.524 268.276 255.729 268.174 255.388C268.044 254.953 267.889 254.556 267.757 254.241C267.489 253.606 267.163 252.956 266.865 252.392C266.259 251.248 265.557 250.07 265.088 249.32L254.912 255.68ZM256.5 257.5C256.5 258.169 256.577 258.806 256.636 259.228C256.7 259.69 256.781 260.148 256.847 260.511C256.923 260.932 256.967 261.159 257.008 261.397C257.026 261.501 257.03 261.535 257.029 261.525C257.028 261.519 257.023 261.475 257.017 261.406C257.012 261.347 257 261.2 257 261H269C269 260.535 268.95 260.135 268.928 259.969C268.899 259.75 268.865 259.538 268.836 259.369C268.783 259.06 268.702 258.631 268.653 258.364C268.594 258.039 268.55 257.779 268.521 257.569C268.486 257.319 268.5 257.331 268.5 257.5H256.5ZM257 261C257 260.539 257.058 260.197 257.061 260.181C257.075 260.091 257.086 260.042 257.083 260.055C257.078 260.077 257.059 260.163 257.017 260.331C256.935 260.659 256.811 261.118 256.659 261.658C256.36 262.727 255.996 263.965 255.753 264.776L267.247 268.224C267.504 267.369 267.89 266.056 268.216 264.892C268.377 264.315 268.534 263.737 268.655 263.256C268.714 263.02 268.777 262.759 268.829 262.511C268.834 262.488 269 261.777 269 261H257ZM255.582 265.514L255.082 268.514L266.918 270.486L267.418 267.486L255.582 265.514ZM255.149 270.83L257.649 281.83L269.351 279.17L266.851 268.17L255.149 270.83ZM259.04 284.514L263.54 289.514L272.46 281.486L267.96 276.486L259.04 284.514ZM263.264 289.184L266.764 293.684L276.236 286.316L272.736 281.816L263.264 289.184ZM267.971 294.852L273.471 298.852L280.529 289.148L275.029 285.148L267.971 294.852ZM272.757 298.243L275.757 301.243L284.243 292.757L281.243 289.757L272.757 298.243ZM274.791 299.977L276.791 303.477L287.209 297.523L285.209 294.023L274.791 299.977ZM278.779 305.562L284.279 309.062L290.721 298.938L285.221 295.438L278.779 305.562ZM284.296 309.073L293.796 315.073L300.204 304.927L290.704 298.927L284.296 309.073ZM293.74 315.037C295.147 315.948 297.279 317.336 299.103 318.542C300.017 319.147 300.835 319.693 301.439 320.106C301.744 320.314 301.968 320.47 302.112 320.574C302.454 320.82 302.128 320.613 301.757 320.243L310.243 311.757C309.772 311.287 309.178 310.875 309.117 310.831C308.858 310.645 308.544 310.427 308.208 310.197C307.53 309.734 306.654 309.149 305.722 308.533C303.854 307.297 301.686 305.886 300.26 304.963L293.74 315.037ZM301.757 320.243C302.406 320.891 303.112 321.277 303.134 321.29C303.356 321.419 303.575 321.533 303.747 321.621C304.102 321.801 304.525 321.999 304.956 322.196C305.834 322.597 306.968 323.092 308.165 323.604C310.571 324.633 313.377 325.796 315.228 326.553L319.772 315.447C317.956 314.704 315.212 313.567 312.885 312.571C311.716 312.071 310.687 311.622 309.944 311.282C309.565 311.109 309.312 310.988 309.17 310.916C309.093 310.877 309.108 310.882 309.175 310.921C309.208 310.94 309.305 310.998 309.435 311.086C309.512 311.139 309.857 311.372 310.243 311.757L301.757 320.243ZM315.753 326.74L327.253 330.24L330.747 318.76L319.247 315.26L315.753 326.74ZM327.454 330.297L334.954 332.297L338.046 320.703L330.546 318.703L327.454 330.297ZM334.603 332.192L340.603 334.192L344.397 322.808L338.397 320.808L334.603 332.192ZM340.603 334.192C340.457 334.144 340.749 334.254 341.782 334.752C342.64 335.166 343.736 335.713 344.928 336.316C347.308 337.52 349.982 338.907 351.716 339.815L357.284 329.185C355.518 328.26 352.792 326.846 350.347 325.609C349.127 324.992 347.954 324.407 346.996 323.945C346.213 323.567 345.143 323.056 344.397 322.808L340.603 334.192ZM352.017 339.962C353.807 340.776 356.505 342.04 358.777 343.184C359.924 343.762 360.883 344.269 361.541 344.65C361.699 344.742 361.825 344.818 361.921 344.878C361.969 344.908 362.005 344.931 362.032 344.949C362.058 344.966 362.07 344.975 362.07 344.974C362.069 344.974 362.064 344.97 362.055 344.963C362.045 344.957 362.031 344.945 362.011 344.93C361.975 344.902 361.904 344.845 361.811 344.76C361.763 344.717 361.125 344.166 360.633 343.183L371.367 337.817C370.825 336.734 370.082 336.062 369.88 335.878C369.557 335.584 369.242 335.35 369.013 335.187C368.547 334.856 368.029 334.541 367.559 334.268C366.596 333.71 365.392 333.08 364.173 332.466C361.712 331.227 358.86 329.891 356.983 329.038L352.017 339.962ZM360.633 343.183C361.192 344.3 362.003 345.074 362.223 345.288C362.602 345.655 363.01 346.002 363.363 346.29C364.072 346.868 364.931 347.511 365.65 348.05C366.431 348.636 367.072 349.118 367.551 349.509C367.663 349.6 367.75 349.674 367.817 349.732C367.85 349.761 367.875 349.783 367.893 349.799C367.912 349.816 367.919 349.824 367.919 349.823C367.919 349.823 367.904 349.809 367.88 349.783C367.856 349.758 367.812 349.711 367.756 349.643C367.681 349.555 367.401 349.218 367.133 348.683L377.867 343.317C377.308 342.2 376.497 341.426 376.277 341.212C375.898 340.845 375.49 340.498 375.137 340.21C374.428 339.632 373.569 338.989 372.85 338.45C372.069 337.864 371.428 337.382 370.949 336.991C370.837 336.9 370.75 336.826 370.683 336.768C370.65 336.739 370.625 336.717 370.607 336.701C370.588 336.684 370.581 336.676 370.581 336.677C370.581 336.677 370.596 336.691 370.62 336.717C370.644 336.742 370.688 336.789 370.744 336.857C370.819 336.945 371.099 337.282 371.367 337.817L360.633 343.183ZM367.133 348.683C367.503 349.423 368.605 351.184 369.51 352.622C370.535 354.251 371.696 356.068 372.453 357.245L382.547 350.755C381.804 349.599 380.665 347.816 379.665 346.228C379.164 345.433 378.708 344.701 378.357 344.128C377.939 343.445 377.826 343.236 377.867 343.317L367.133 348.683ZM372.028 356.462L376.528 366.462L387.472 361.538L382.972 351.538L372.028 356.462ZM376.073 364.936L377.573 374.436L389.427 372.564L387.927 363.064L376.073 364.936ZM377.617 374.677L379.117 382.177L390.883 379.823L389.383 372.323L377.617 374.677ZM379.1 382.093L381.6 395.593L393.4 393.407L390.9 379.907L379.1 382.093ZM381.566 395.39C381.815 397.051 382.189 399.565 382.499 401.71C382.655 402.784 382.793 403.753 382.891 404.472C382.941 404.835 382.978 405.114 383.001 405.305C383.053 405.729 383 405.415 383 405H395C395 404.485 394.915 403.872 394.911 403.837C394.878 403.568 394.833 403.227 394.781 402.846C394.676 402.08 394.533 401.074 394.376 399.99C394.061 397.818 393.685 395.283 393.434 393.61L381.566 395.39ZM383 405C383 405.415 383.078 406.352 383.129 406.984C383.197 407.841 383.292 408.979 383.396 410.217C383.605 412.694 383.856 415.6 384.023 417.52L395.977 416.48C395.811 414.567 395.562 411.672 395.354 409.208C395.25 407.975 395.157 406.857 395.09 406.025C395.005 404.969 395 404.785 395 405H383ZM384 417V429.5H396V417H384ZM384.01 429.852L384.51 438.352L396.49 437.648L395.99 429.148L384.01 429.852ZM384.5 438V447H396.5V438H384.5ZM384.5 447V457.5H396.5V447H384.5ZM384.509 457.833L385.509 475.833L397.491 475.167L396.491 457.167L384.509 457.833ZM385.624 476.716L388.624 491.216L400.376 488.784L397.376 474.284L385.624 476.716ZM388.617 491.177L391.617 506.177L403.383 503.823L400.383 488.823L388.617 491.177ZM391.603 506.106L393.103 514.106L404.897 511.894L403.397 503.894L391.603 506.106ZM393.194 514.515L396.194 526.015L407.806 522.985L404.806 511.485L393.194 514.515ZM396.126 525.724L398.626 537.724L410.374 535.276L407.874 523.276L396.126 525.724ZM398.779 538.307L401.779 547.807L413.221 544.193L410.221 534.693L398.779 538.307ZM401.5 546V547H413.5V546H401.5Z" fill="#00856F"/>
</g>
</svg>
